  0
SECTION
  2
HEADER
  9
$ACADVER
  1
AC1014
  9
$HANDSEED
  5
FFFF
  9
$MEASUREMENT
 70
     1
  0
ENDSEC
  0
SECTION
  2
TABLES
  0
TABLE
  2
VPORT
  5
8
330
0
100
AcDbSymbolTable
 70
     4
  0
VPORT
  5
2E
330
8
100
AcDbSymbolTableRecord
100
AcDbViewportTableRecord
  2
*ACTIVE
 70
     0
 10
0.0
 20
0.0
 11
1.0
 21
1.0
 12
210.0
 22
148.5
 13
0.0
 23
0.0
 14
10.0
 24
10.0
 15
10.0
 25
10.0
 16
0.0
 26
0.0
 36
1.0
 17
0.0
 27
0.0
 37
0.0
 40
341.0
 41
1.24
 42
50.0
 43
0.0
 44
0.0
 50
0.0
 51
0.0
 71
     0
 72
   100
 73
     1
 74
     3
 75
     0
 76
     0
 77
     0
 78
     0
  0
ENDTAB
  0
TABLE
  2
LTYPE
  5
5
330
0
100
AcDbSymbolTable
 70
     1
  0
LTYPE
  5
14
330
5
100
AcDbSymbolTableRecord
100
AcDbLinetypeTableRecord
  2
BYBLOCK
 70
     0
  3

 72
    65
 73
     0
 40
0.0
  0
LTYPE
  5
15
330
5
100
AcDbSymbolTableRecord
100
AcDbLinetypeTableRecord
  2
BYLAYER
 70
     0
  3

 72
    65
 73
     0
 40
0.0
  0
LTYPE
  5
16
330
5
100
AcDbSymbolTableRecord
100
AcDbLinetypeTableRecord
  2
CONTINUOUS
 70
     0
  3
Solid line
 72
    65
 73
     0
 40
0.0
  0
ENDTAB
  0
TABLE
  2
LAYER
  5
2
100
AcDbSymbolTable
 70
1
  0
LAYER
  5
50
100
AcDbSymbolTableRecord
100
AcDbLayerTableRecord
  2
0
 70
0
  6
CONTINUOUS
  0
ENDTAB
  0
TABLE
  2
STYLE
  5
3
330
0
100
AcDbSymbolTable
 70
     1
  0
STYLE
  5
11
330
3
100
AcDbSymbolTableRecord
100
AcDbTextStyleTableRecord
  2
STANDARD
 70
     0
 40
0.0
 41
1.0
 50
0.0
 71
     0
 42
2.5
  3
txt
  4

  0
ENDTAB
  0
TABLE
  2
VIEW
  5
6
330
0
100
AcDbSymbolTable
 70
     0
  0
ENDTAB
  0
TABLE
  2
UCS
  5
7
330
0
100
AcDbSymbolTable
 70
     0
  0
ENDTAB
  0
TABLE
  2
APPID
  5
9
330
0
100
AcDbSymbolTable
 70
     2
  0
APPID
  5
12
330
9
100
AcDbSymbolTableRecord
100
AcDbRegAppTableRecord
  2
ACAD
 70
     0
  0
ENDTAB
  0
TABLE
  2
DIMSTYLE
  5
A
330
0
100
AcDbSymbolTable
 70
     1
  0
DIMSTYLE
105
27
330
A
100
AcDbSymbolTableRecord
100
AcDbDimStyleTableRecord
  2
ISO-25
 70
     0
  3

  4

  5

  6

  7

 40
1.0
 41
2.5
 42
0.625
 43
3.75
 44
1.25
 45
0.0
 46
0.0
 47
0.0
 48
0.0
140
2.5
141
2.5
142
0.0
143
0.03937007874016
144
1.0
145
0.0
146
1.0
147
0.625
 71
     0
 72
     0
 73
     0
 74
     0
 75
     0
 76
     0
 77
     1
 78
     8
170
     0
171
     3
172
     1
173
     0
174
     0
175
     0
176
     0
177
     0
178
     0
270
     2
271
     2
272
     2
273
     2
274
     3
340
11
275
     0
280
     0
281
     0
282
     0
283
     0
284
     8
285
     0
286
     0
287
     3
288
     0
  0
ENDTAB
  0
TABLE
  2
BLOCK_RECORD
  5
1
330
0
100
AcDbSymbolTable
 70
     1
  0
BLOCK_RECORD
  5
1F
330
1
100
AcDbSymbolTableRecord
100
AcDbBlockTableRecord
  2
*MODEL_SPACE
  0
BLOCK_RECORD
  5
1B
330
1
100
AcDbSymbolTableRecord
100
AcDbBlockTableRecord
  2
*PAPER_SPACE
  0
ENDTAB
  0
ENDSEC
  0
SECTION
  2
BLOCKS
  0
BLOCK
  5
20
330
1F
100
AcDbEntity
  8
0
100
AcDbBlockBegin
  2
*MODEL_SPACE
 70
     0
 10
0.0
 20
0.0
 30
0.0
  3
*MODEL_SPACE
  1

  0
ENDBLK
  5
21
330
1F
100
AcDbEntity
  8
0
100
AcDbBlockEnd
  0
BLOCK
  5
1C
330
1B
100
AcDbEntity
 67
     1
  8
0
100
AcDbBlockBegin
  2
*PAPER_SPACE
  1

  0
ENDBLK
  5
1D
330
1B
100
AcDbEntity
 67
     1
  8
0
100
AcDbBlockEnd
  0
ENDSEC
  0
SECTION
  2
ENTITIES
  0
LWPOLYLINE
  5
100
100
AcDbEntity
  8
0
 62
7
100
AcDbPolyline
 90
27
 70
1
 10
231.158647
 20
-4.390200
 30
0.0
 10
190.150440
 20
-1.431375
 30
0.0
 10
154.118647
 20
3.104100
 30
0.0
 10
131.850037
 20
7.033650
 30
0.0
 10
123.604507
 20
8.667675
 30
0.0
 10
122.459325
 20
13.639050
 30
0.0
 10
122.269560
 20
41.506200
 30
0.0
 10
122.269560
 20
56.009025
 30
0.0
 10
123.121830
 20
60.496800
 30
0.0
 10
125.821830
 20
60.094200
 30
0.0
 10
164.504977
 20
55.864725
 30
0.0
 10
207.530917
 20
53.054625
 30
0.0
 10
256.739745
 20
52.344375
 30
0.0
 10
304.597612
 20
53.058375
 30
0.0
 10
349.034662
 20
55.945200
 30
0.0
 10
384.735465
 20
59.236650
 30
0.0
 10
387.435465
 20
59.644575
 30
0.0
 10
386.583195
 20
55.171050
 30
0.0
 10
386.583195
 20
40.682400
 30
0.0
 10
386.395087
 20
14.001900
 30
0.0
 10
385.528807
 20
7.891575
 30
0.0
 10
379.647750
 20
6.741225
 30
0.0
 10
371.250172
 20
4.543725
 30
0.0
 10
334.004790
 20
0.067275
 30
0.0
 10
302.078647
 20
-3.063375
 30
0.0
 10
265.617585
 20
-4.303725
 30
0.0
 10
231.158647
 20
-4.390125
 30
0.0
  0
LWPOLYLINE
  5
101
100
AcDbEntity
  8
0
 62
7
100
AcDbPolyline
 90
22
 70
1
 10
75.690465
 20
21.657075
 30
0.0
 10
41.419461
 20
30.604500
 30
0.0
 10
12.635365
 20
37.179000
 30
0.0
 10
10.147187
 20
39.021000
 30
0.0
 10
7.955365
 20
41.534400
 30
0.0
 10
6.964960
 20
43.030125
 30
0.0
 10
5.974555
 20
44.525925
 30
0.0
 10
5.866090
 20
56.389875
 30
0.0
 10
5.757625
 20
63.992400
 30
0.0
 10
5.649160
 20
75.856350
 30
0.0
 10
6.285145
 20
82.509150
 30
0.0
 10
7.098408
 20
82.296525
 30
0.0
 10
7.911670
 20
82.083825
 30
0.0
 10
38.845378
 20
77.571600
 30
0.0
 10
79.134907
 20
70.310625
 30
0.0
 10
81.024907
 20
69.946800
 30
0.0
 10
82.914907
 20
69.582900
 30
0.0
 10
82.170465
 20
60.059550
 30
0.0
 10
82.170465
 20
49.586400
 30
0.0
 10
81.985380
 20
26.191650
 30
0.0
 10
81.270465
 20
20.184825
 30
0.0
 10
79.260090
 20
20.645025
 30
0.0
  0
LWPOLYLINE
  5
102
100
AcDbEntity
  8
0
 62
7
100
AcDbPolyline
 90
16
 70
1
 10
431.115653
 20
48.112950
 30
0.0
 10
431.209642
 20
54.440250
 30
0.0
 10
430.559197
 20
65.568000
 30
0.0
 10
431.639198
 20
65.676450
 30
0.0
 10
432.719198
 20
65.784900
 30
0.0
 10
444.101985
 20
67.786725
 30
0.0
 10
487.085663
 20
76.709550
 30
0.0
 10
499.557548
 20
81.272025
 30
0.0
 10
503.898953
 20
82.106250
 30
0.0
 10
504.098295
 20
75.179625
 30
0.0
 10
504.799238
 20
70.771200
 30
0.0
 10
502.476495
 20
43.918725
 30
0.0
 10
471.015308
 20
31.248975
 30
0.0
 10
442.438650
 20
21.600150
 30
0.0
 10
431.401448
 20
18.412950
 30
0.0
 10
431.122080
 20
27.137325
 30
0.0
  0
LWPOLYLINE
  5
103
100
AcDbEntity
  8
0
 62
7
100
AcDbPolyline
 90
24
 70
1
 10
204.164977
 20
82.266675
 30
0.0
 10
175.726477
 20
84.230775
 30
0.0
 10
140.857290
 20
87.805425
 30
0.0
 10
128.537415
 20
89.049450
 30
0.0
 10
122.677290
 20
89.568600
 30
0.0
 10
121.604212
 20
91.501125
 30
0.0
 10
122.269560
 20
115.202325
 30
0.0
 10
122.269560
 20
126.505200
 30
0.0
 10
122.269560
 20
136.955925
 30
0.0
 10
124.699560
 20
136.743225
 30
0.0
 10
127.129560
 20
136.530600
 30
0.0
 10
253.984178
 20
133.559700
 30
0.0
 10
381.363195
 20
135.662775
 30
0.0
 10
383.973195
 20
135.871575
 30
0.0
 10
386.583195
 20
136.080300
 30
0.0
 10
386.583195
 20
125.695200
 30
0.0
 10
386.583195
 20
114.457800
 30
0.0
 10
385.730925
 20
102.368100
 30
0.0
 10
385.730925
 20
88.957875
 30
0.0
 10
380.060925
 20
88.364775
 30
0.0
 10
378.652290
 20
87.771600
 30
0.0
 10
318.835703
 20
83.258475
 30
0.0
 10
261.986378
 20
81.883800
 30
0.0
 10
230.403128
 20
81.897300
 30
0.0
  0
LWPOLYLINE
  5
104
100
AcDbEntity
  8
0
 62
7
100
AcDbPolyline
 90
22
 70
1
 10
75.425917
 20
99.446175
 30
0.0
 10
40.262752
 20
105.730875
 30
0.0
 10
6.610010
 20
110.908125
 30
0.0
 10
5.260010
 20
111.268050
 30
0.0
 10
3.910010
 20
111.628050
 30
0.0
 10
5.614555
 20
116.263800
 30
0.0
 10
5.614555
 20
129.422250
 30
0.0
 10
5.614555
 20
139.171500
 30
0.0
 10
5.614555
 20
148.607775
 30
0.0
 10
8.584555
 20
148.362150
 30
0.0
 10
11.554555
 20
148.116525
 30
0.0
 10
21.565930
 20
147.419025
 30
0.0
 10
50.078646
 20
145.579575
 30
0.0
 10
71.910463
 20
143.278275
 30
0.0
 10
81.810465
 20
142.681575
 30
0.0
 10
81.904455
 20
134.962950
 30
0.0
 10
81.998452
 20
120.112950
 30
0.0
 10
81.240165
 20
109.524300
 30
0.0
 10
80.481892
 20
98.935650
 30
0.0
 10
79.667895
 20
98.984400
 30
0.0
 10
78.853905
 20
99.033150
 30
0.0
 10
77.175390
 20
99.194775
 30
0.0
  0
LWPOLYLINE
  5
105
100
AcDbEntity
  8
0
 62
7
100
AcDbPolyline
 90
22
 70
1
 10
431.115653
 20
118.408425
 30
0.0
 10
431.209650
 20
123.883425
 30
0.0
 10
431.303640
 20
135.011175
 30
0.0
 10
440.663640
 20
135.590175
 30
0.0
 10
452.580465
 20
139.578225
 30
0.0
 10
484.911667
 20
141.403950
 30
0.0
 10
497.931675
 20
144.675225
 30
0.0
 10
501.446145
 20
144.940200
 30
0.0
 10
504.960622
 20
145.205175
 30
0.0
 10
504.866152
 20
135.679500
 30
0.0
 10
504.771675
 20
131.806575
 30
0.0
 10
504.677205
 20
118.558650
 30
0.0
 10
503.730465
 20
109.572150
 30
0.0
 10
502.290465
 20
109.293525
 30
0.0
 10
500.850465
 20
109.014900
 30
0.0
 10
495.749715
 20
107.982675
 30
0.0
 10
484.973647
 20
103.726725
 30
0.0
 10
441.932025
 20
94.728375
 30
0.0
 10
431.621167
 20
92.969775
 30
0.0
 10
430.848277
 20
92.969775
 30
0.0
 10
430.075395
 20
92.969775
 30
0.0
 10
430.169392
 20
107.819775
 30
0.0
  0
LWPOLYLINE
  5
106
100
AcDbEntity
  8
0
 62
7
100
AcDbPolyline
 90
22
 70
1
 10
169.813695
 20
168.980700
 30
0.0
 10
130.597290
 20
171.013800
 30
0.0
 10
126.007290
 20
171.244125
 30
0.0
 10
121.417290
 20
171.474375
 30
0.0
 10
121.417290
 20
182.820375
 30
0.0
 10
121.417290
 20
199.067730
 30
0.0
 10
121.604453
 20
217.365630
 30
0.0
 10
122.677290
 20
222.219803
 30
0.0
 10
133.401915
 20
222.536527
 30
0.0
 10
160.826378
 20
222.400507
 30
0.0
 10
253.979400
 20
223.375357
 30
0.0
 10
346.946377
 20
222.445657
 30
0.0
 10
376.917518
 20
221.545545
 30
0.0
 10
385.190925
 20
221.015737
 30
0.0
 10
385.572300
 20
211.457280
 30
0.0
 10
385.730925
 20
197.980365
 30
0.0
 10
385.730925
 20
181.821150
 30
0.0
 10
385.730925
 20
170.563350
 30
0.0
 10
380.420925
 20
170.332500
 30
0.0
 10
375.110925
 20
170.101650
 30
0.0
 10
293.384820
 20
168.197625
 30
0.0
 10
212.666378
 20
167.961525
 30
0.0
  0
LWPOLYLINE
  5
107
100
AcDbEntity
  8
0
 62
7
100
AcDbPolyline
 90
20
 70
1
 10
38.066373
 20
175.629450
 30
0.0
 10
15.202282
 20
177.243750
 30
0.0
 10
5.122282
 20
178.005750
 30
0.0
 10
5.027842
 20
185.701125
 30
0.0
 10
4.933410
 20
198.931125
 30
0.0
 10
4.838977
 20
212.161125
 30
0.0
 10
4.744545
 20
220.277490
 30
0.0
 10
5.558977
 20
220.277340
 30
0.0
 10
6.373410
 20
220.277198
 30
0.0
 10
11.753804
 20
220.595978
 30
0.0
 10
22.402282
 20
221.362807
 30
0.0
 10
71.225261
 20
220.430355
 30
0.0
 10
81.007740
 20
220.671135
 30
0.0
 10
81.226995
 20
212.667892
 30
0.0
 10
81.318188
 20
196.074315
 30
0.0
 10
81.318188
 20
181.374300
 30
0.0
 10
81.318188
 20
172.208850
 30
0.0
 10
78.528188
 20
172.256850
 30
0.0
 10
75.738188
 20
172.304850
 30
0.0
 10
69.284407
 20
172.820325
 30
0.0
  0
LWPOLYLINE
  5
108
100
AcDbEntity
  8
0
 62
7
100
AcDbPolyline
 90
18
 70
1
 10
430.091370
 20
194.369767
 30
0.0
 10
429.329543
 20
210.110333
 30
0.0
 10
429.546998
 20
218.964038
 30
0.0
 10
440.174730
 20
218.704583
 30
0.0
 10
483.401378
 20
221.368845
 30
0.0
 10
496.349820
 20
223.152690
 30
0.0
 10
501.618195
 20
222.832342
 30
0.0
 10
502.428195
 20
222.833093
 30
0.0
 10
503.238195
 20
222.833842
 30
0.0
 10
503.238195
 20
209.682547
 30
0.0
 10
504.090465
 20
201.644887
 30
0.0
 10
503.902335
 20
184.189425
 30
0.0
 10
503.190465
 20
178.463475
 30
0.0
 10
467.563133
 20
173.275200
 30
0.0
 10
433.151370
 20
168.370575
 30
0.0
 10
431.621370
 20
168.370575
 30
0.0
 10
430.091370
 20
168.370575
 30
0.0
 10
430.091370
 20
183.070425
 30
0.0
  0
LWPOLYLINE
  5
109
100
AcDbEntity
  8
0
 62
7
100
AcDbPolyline
 90
22
 70
1
 10
4.933342
 20
263.990055
 30
0.0
 10
5.027812
 20
272.979878
 30
0.0
 10
4.270010
 20
284.526525
 30
0.0
 10
5.350010
 20
284.765063
 30
0.0
 10
6.430010
 20
285.003608
 30
0.0
 10
49.759635
 20
290.477962
 30
0.0
 10
79.205917
 20
291.743632
 30
0.0
 10
80.278267
 20
287.351242
 30
0.0
 10
81.318187
 20
268.194315
 30
0.0
 10
82.170465
 20
257.695680
 30
0.0
 10
82.170465
 20
250.919250
 30
0.0
 10
81.360465
 20
250.910475
 30
0.0
 10
80.550465
 20
250.901700
 30
0.0
 10
78.348840
 20
250.790370
 30
0.0
 10
75.330465
 20
250.547227
 30
0.0
 10
71.332555
 20
249.988065
 30
0.0
 10
43.238646
 20
250.821435
 30
0.0
 10
17.540305
 20
250.777035
 30
0.0
 10
9.745615
 20
250.156462
 30
0.0
 10
7.671137
 20
249.944490
 30
0.0
 10
5.596660
 20
249.732517
 30
0.0
 10
5.691138
 20
255.000142
 30
0.0
  0
LWPOLYLINE
  5
10a
100
AcDbEntity
  8
0
 62
7
100
AcDbPolyline
 90
22
 70
1
 10
468.734205
 20
249.679590
 30
0.0
 10
444.604822
 20
247.348343
 30
0.0
 10
435.419197
 20
248.050560
 30
0.0
 10
432.809197
 20
248.267925
 30
0.0
 10
430.199197
 20
248.485283
 30
0.0
 10
430.943640
 20
256.129658
 30
0.0
 10
430.091370
 20
266.643952
 30
0.0
 10
430.091370
 20
281.419612
 30
0.0
 10
429.239100
 20
291.081645
 30
0.0
 10
431.129100
 20
290.837797
 30
0.0
 10
433.019100
 20
290.593957
 30
0.0
 10
463.086795
 20
290.132145
 30
0.0
 10
498.918195
 20
288.812280
 30
0.0
 10
500.898195
 20
288.348862
 30
0.0
 10
502.878195
 20
287.885452
 30
0.0
 10
503.730465
 20
279.886297
 30
0.0
 10
503.730465
 20
266.773508
 30
0.0
 10
504.582735
 20
257.922090
 30
0.0
 10
503.838292
 20
251.940600
 30
0.0
 10
502.938292
 20
251.891325
 30
0.0
 10
502.038292
 20
251.842050
 30
0.0
 10
495.268042
 20
252.167595
 30
0.0
  0
LWPOLYLINE
  5
10b
100
AcDbEntity
  8
0
 62
7
100
AcDbPolyline
 90
26
 70
1
 10
121.416195
 20
276.331125
 30
0.0
 10
121.601047
 20
291.311513
 30
0.0
 10
122.146297
 20
299.536125
 30
0.0
 10
126.412635
 20
299.954985
 30
0.0
 10
135.646297
 20
300.962033
 30
0.0
 10
165.411082
 20
302.579925
 30
0.0
 10
198.986377
 20
304.836173
 30
0.0
 10
251.703397
 20
305.998013
 30
0.0
 10
302.666377
 20
305.218485
 30
0.0
 10
347.708917
 20
302.164905
 30
0.0
 10
382.310925
 20
298.933448
 30
0.0
 10
384.020925
 20
298.715895
 30
0.0
 10
385.730925
 20
298.498343
 30
0.0
 10
385.731255
 20
287.368350
 30
0.0
 10
385.731592
 20
275.386095
 30
0.0
 10
385.731922
 20
259.142475
 30
0.0
 10
385.604250
 20
252.061620
 30
0.0
 10
377.895285
 20
252.493020
 30
0.0
 10
365.924948
 20
252.924427
 30
0.0
 10
252.027135
 20
254.394232
 30
0.0
 10
134.428185
 20
253.373287
 30
0.0
 10
127.857638
 20
253.143585
 30
0.0
 10
121.287090
 20
252.913890
 30
0.0
 10
121.415850
 20
260.041125
 30
0.0
 10
121.416600
 20
276.331125
 30
0.0
 10
121.416398
 20
276.331125
 30
0.0
  0
LWPOLYLINE
  5
10c
100
AcDbEntity
  8
0
 62
7
100
AcDbPolyline
 90
18
 70
1
 10
3.917877
 20
331.653577
 30
0.0
 10
4.144925
 20
351.271463
 30
0.0
 10
2.698602
 20
361.666733
 30
0.0
 10
13.221574
 20
365.125890
 30
0.0
 10
44.118931
 20
370.994265
 30
0.0
 10
78.631950
 20
376.679280
 30
0.0
 10
82.652565
 20
377.514930
 30
0.0
 10
83.013788
 20
347.707253
 30
0.0
 10
80.778188
 20
324.625553
 30
0.0
 10
49.579060
 20
322.831785
 30
0.0
 10
14.842282
 20
319.292010
 30
0.0
 10
10.341157
 20
318.240615
 30
0.0
 10
7.102282
 20
317.557485
 30
0.0
 10
5.932282
 20
317.347042
 30
0.0
 10
4.762282
 20
317.136600
 30
0.0
 10
4.770232
 20
324.835395
 30
0.0
 10
3.917967
 20
331.653577
 30
0.0
 10
3.917960
 20
331.653577
 30
0.0
  0
LWPOLYLINE
  5
10d
100
AcDbEntity
  8
0
 62
7
100
AcDbPolyline
 90
16
 70
1
 10
496.998292
 20
318.775943
 30
0.0
 10
464.508247
 20
319.292505
 30
0.0
 10
432.899197
 20
320.062995
 30
0.0
 10
431.549197
 20
320.299245
 30
0.0
 10
430.199197
 20
320.535503
 30
0.0
 10
430.091370
 20
328.892340
 30
0.0
 10
430.091370
 20
343.636028
 30
0.0
 10
430.276050
 20
366.017363
 30
0.0
 10
430.857720
 20
373.123403
 30
0.0
 10
442.636808
 20
369.806610
 30
0.0
 10
471.866377
 20
366.768998
 30
0.0
 10
501.884572
 20
360.963143
 30
0.0
 10
504.074655
 20
334.084073
 30
0.0
 10
504.779468
 20
321.543780
 30
0.0
 10
503.658293
 20
317.711235
 30
0.0
 10
501.479168
 20
317.899343
 30
0.0
  0
LWPOLYLINE
  5
10e
100
AcDbEntity
  8
0
 62
7
100
AcDbPolyline
 90
26
 70
1
 10
121.417290
 20
353.717363
 30
0.0
 10
121.417290
 20
370.033103
 30
0.0
 10
121.417290
 20
386.348850
 30
0.0
 10
127.267290
 20
387.386070
 30
0.0
 10
133.117290
 20
388.423290
 30
0.0
 10
222.276345
 20
397.269510
 30
0.0
 10
309.146378
 20
395.870963
 30
0.0
 10
338.004203
 20
392.686530
 30
0.0
 10
369.472290
 20
389.110725
 30
0.0
 10
375.305415
 20
388.020368
 30
0.0
 10
377.990925
 20
386.814787
 30
0.0
 10
381.860925
 20
386.170980
 30
0.0
 10
385.730925
 20
385.527165
 30
0.0
 10
385.730925
 20
369.242723
 30
0.0
 10
385.730925
 20
352.958280
 30
0.0
 10
386.583195
 20
340.935203
 30
0.0
 10
387.563475
 20
329.552153
 30
0.0
 10
387.563475
 20
329.552153
 30
0.0
 10
371.363925
 20
331.759575
 30
0.0
 10
343.378928
 20
333.745597
 30
0.0
 10
248.099227
 20
336.851752
 30
0.0
 10
156.898928
 20
332.701927
 30
0.0
 10
134.500763
 20
331.651882
 30
0.0
 10
125.589840
 20
330.612187
 30
0.0
 10
123.249840
 20
330.248640
 30
0.0
 10
122.269560
 20
341.662980
 30
0.0
  0
ENDSEC
  0
SECTION
  2
OBJECTS
  0
DICTIONARY
  5
C
330
0
100
AcDbDictionary
  3
ACAD_GROUP
350
D
  3
ACAD_MLINESTYLE
350
17
  0
DICTIONARY
  5
D
330
C
100
AcDbDictionary
  0
DICTIONARY
  5
1A
330
C
100
AcDbDictionary
  0
DICTIONARY
  5
17
330
C
100
AcDbDictionary
  3
STANDARD
350
18
  0
DICTIONARY
  5
19
330
C
100
AcDbDictionary
  0
ENDSEC
  0
EOF
