<?xml version="1.0" encoding="UTF-8" standalone="no"?>
<!-- Created with Inkscape (http://www.inkscape.org/) -->

<svg
   xmlns:dc="http://purl.org/dc/elements/1.1/"
   xmlns:cc="http://creativecommons.org/ns#"
   xmlns:rdf="http://www.w3.org/1999/02/22-rdf-syntax-ns#"
   xmlns:svg="http://www.w3.org/2000/svg"
   xmlns="http://www.w3.org/2000/svg"
   xmlns:sodipodi="http://sodipodi.sourceforge.net/DTD/sodipodi-0.dtd"
   xmlns:inkscape="http://www.inkscape.org/namespaces/inkscape"
   version="1.1"
   id="svg2"
   width="1248"
   height="1248"
   viewBox="0 0 1248 1248"
   sodipodi:docname="Barrel.svg"
   inkscape:version="0.92.3 (2405546, 2018-03-11)">
  <metadata
     id="metadata8">
    <rdf:RDF>
      <cc:Work
         rdf:about="">
        <dc:format>image/svg+xml</dc:format>
        <dc:type
           rdf:resource="http://purl.org/dc/dcmitype/StillImage" />
        <dc:title />
      </cc:Work>
    </rdf:RDF>
  </metadata>
  <defs
     id="defs6" />
  <sodipodi:namedview
     pagecolor="#ffffff"
     bordercolor="#666666"
     borderopacity="1"
     objecttolerance="10"
     gridtolerance="10"
     guidetolerance="10"
     inkscape:pageopacity="0"
     inkscape:pageshadow="2"
     inkscape:window-width="1246"
     inkscape:window-height="707"
     id="namedview4"
     showgrid="false"
     inkscape:zoom="0.88"
     inkscape:cx="331.62641"
     inkscape:cy="261.47087"
     inkscape:window-x="91"
     inkscape:window-y="81"
     inkscape:window-maximized="0"
     inkscape:current-layer="svg2" />
  <path
     style="fill:#000000;stroke-width:0.95999998"
     d="m 308.21153,1253.8536 -54.67761,-3.9451 -48.04239,-6.0473 -29.69148,-5.2394 -10.99404,-2.1787 -1.52691,-6.6285 -0.25302,-37.1562 v -19.3371 l 1.13636,-5.9837 3.6,0.5368 51.57753,5.6393 57.36792,3.7468 65.61177,0.947 63.81049,-0.952 59.2494,-3.8491 47.60107,-4.3886 3.6,-0.5439 -1.13636,5.9647 v 19.3182 l -0.25081,35.574 -1.15504,8.1471 -7.84141,1.5338 -11.19677,2.93 -49.66051,5.9686 -42.56819,4.1742 -48.61475,1.6538 -45.94525,0.1152 z m -207.29091,-34.7297 -45.694672,-11.9299 -38.378795,-8.766 -3.31757,-2.456 -2.92243,-3.3512 -1.3205395,-1.9943 -1.32054,-1.9944 -0.14462,-15.8186 -0.14462,-10.1367 -0.14462,-15.8186 0.84798,-8.8704 1.08435,0.2835 1.0843495,0.2836 41.244945,6.0163 53.719372,9.6813 2.52,0.4851 2.52,0.4852 -0.99259,12.6978 v 13.9642 l -0.24678,31.193 -0.95322,8.0091 -2.6805,-0.6136 z m 473.90025,-35.2745 0.12532,-8.4364 -0.86726,-14.837 1.44,-0.1446 1.44,-0.1446 15.17705,-2.6691 57.31157,-11.8971 16.62918,-6.0833 5.78854,-1.1123 0.26579,9.2355 0.93459,5.8779 -3.09699,35.8033 -41.94825,16.893 -38.10221,12.8651 -14.71627,4.2496 -0.37249,-11.6325 z m -302.6009,-45.5383 -37.918,-2.6188 -46.49225,-4.7662 -16.4265,-1.6587 -7.8135,-0.6922 -1.43077,-2.5767 0.88713,-31.6016 v -15.0705 -13.9343 l 3.24,0.2836 3.24,0.2835 169.13949,3.9612 169.83869,-2.8041 3.48,-0.2784 3.48,-0.2783 v 13.8468 14.9832 l -1.13636,16.1196 v 17.8803 l -7.56,0.7908 -1.87818,0.7909 -79.75545,6.0175 -75.7991,1.8329 -42.111,-0.018 z m -171.65208,-22.906 -46.88422,-8.3796 -44.8703235,-6.903 -1.8,-0.4799 -1.8,-0.48 2.272727,-6.181 v -17.5446 -12.999 -12.5817 l 3.9599995,0.3275 3.96,0.3275 13.3485,0.93 38.016955,2.4526 29.10909,3.0684 13.200002,0.7956 0.12532,10.2915 0.12533,19.8 -1.01105,14.1182 -1.01103,14.1182 -1.08533,-0.065 -1.08532,-0.065 -2.23802,-0.2155 z m 474.25298,-25.283 0.12533,-7.3 0.12532,-14.837 12.48,-0.772 15.8891,-5.3174 43.10827,-2.4343 17.36001,-4.3617 4.68596,-0.3533 4.68597,-0.3533 -0.12596,12.7009 -0.12597,5.1639 -0.12596,17.6639 -1.26232,11.982 -1.92,0.3715 -1.92,0.3715 -6.801,1.3763 -14.36809,5.6746 -57.38883,11.9978 -13.74781,2.3448 h -1.03052 -1.03051 l 0.12533,-19.8 z m -348.40261,-67.4297 -52.28854,-2.7108 -6.12,-0.3071 -6.12,-0.307 v -15.128 -21.66314 l 0.24955,-24.3972 1.43045,-6.47223 14.2995,-0.4223 36.56595,0.18136 124.20403,-1.2998 123.95597,1.2396 39.96152,1.20015 11.03121,0.70641 0.5085,12.74461 0.2115,17.96922 v 21.54562 15.0104 l -7.08,0.3078 -7.08,0.3078 -108.96814,2.5387 -107.62459,0.3148 z m -175.663096,-8.865 -30.485455,-2.1524 -13.4399995,-1.016 -0.12592,-10.2605 -0.12591,-17.64 -0.12591,-17.64 -0.12591,-10.82182 1.08591,2e-4 1.08591,1.9e-4 7.1738595,-0.42504 14.19797,-1.02244 65.097305,1.24327 13.043306,-0.32104 0.29234,10.67099 0.12159,22.12477 v 19.60002 12.2206 l -3.72,-0.064 -3.72,-0.064 -8.605041,-0.6873 z m 522.699996,-24.98709 -1.01577,-20.98742 0.28994,-11.80494 14.17031,0.34594 57.63553,-3.55235 17.26459,-2.37846 7.0245,0.42713 1.08,-10e-4 1.08,-0.001 v 17.53506 l 1.13636,10.71688 -0.25084,23.27395 -0.94916,7.6346 -47.50311,6.9177 -45.88235,6.5395 h -2.04 -2.04 v -19.5998 z M 6.5777895,896.01326 l 0.12596,-11.98643 -1.010403,-15.39553 1.44,-0.31805 1.44,-0.31806 57.7728335,-7.29914 39.26171,-1.68756 1.4298,5.85652 1.38656,25.54257 1.13637,13.99818 v 9.03524 l -1.08,0.0117 -1.08,0.0117 -2.9355,0.14844 -4.0245,0.32419 -5.330547,0.74555 -37.458545,-1.11116 -34.264455,0.0592 -10.39292,0.82743 -2.76597,0.28263 -2.7659695,0.28263 0.12597,-7.0235 z m 618.4011505,19.08062 -32.17251,3.10833 -12.2475,-0.93629 -3.48,-0.28982 -3.48,-0.28981 0.99259,-10.1925 -1.13636,-14.01906 v -19.70088 l -1.13636,-12.88271 2.52,0.32513 2.52,0.32512 40.09026,0.61575 47.7752,1.75982 2.64,0.61789 2.64,0.61788 1.13636,10.66554 v 17.48372 l 1.13636,11.80189 -0.99259,7.97532 -1.2,0.0657 -1.2,0.0657 -9.027,-0.43406 z m -463.09068,-35.53538 0.24647,-19.97385 0.727,-10.96615 5.68845,-0.55848 12.31155,-1.34273 39.68638,-2.15719 44.76706,-3.00833 70.28936,-1.54912 67.95064,1.03937 60.05672,4.07144 46.13601,4.30861 2.28,0.29007 2.28,0.29007 4.4e-4,14.83999 4.5e-4,15.97634 4.4e-4,21.65816 -0.17023,9.44114 -10.27862,-0.5752 -15.96045,-0.57521 -151.86375,-1.95974 -156.7986,1.36126 -8.76073,0.30627 -8.76073,0.30626 0.17168,-9.50298 0.001,-21.72 h -2.7e-4 z M 5.2238365,805.79523 l 0.30273,-26.15718 -1.928431,-13.86036 14.0306305,-4.61221 41.196476,-7.8245 46.017358,-7.58002 5.36082,-1.1142 0.48163,39.74357 -2.9808,30.7756 -41.598836,2.39169 -46.315705,4.7197 -6.0015,1.40186 -4.3184995,0.91084 -1.56,0.28059 -1.56,0.28059 0.0106,-10.26506 -1.136353,-9.09091 h -10e-6 z m 657.4405535,17.17018 -43.32006,-0.68875 -42.1454,-1.02732 -1.8,-0.315 -1.8,-0.31501 -0.14377,-11.14245 v -19.65825 l 0.24624,-29.84178 0.77556,-9.47472 15.70545,4.42239 38.97276,4.05015 40.02426,7.74114 2.92011,35.83876 0.93975,16.72039 -1.4949,5.11006 -2.9055,-0.25081 z M 161.88972,776.37685 V 754.62253 732.8682 l 7.8,-1.38296 7.8,-1.38296 118.87874,-11.79496 115.82671,1.86473 38.4771,4.24591 41.95745,4.76774 7.7775,1.45381 3.58068,1.60744 5.16,0.85841 5.16,0.85842 v 21.71259 21.71259 l 1.13636,16.03077 1.30704,15.1774 v 0 l -21.5994,-2.94323 -37.31333,-2.64803 -127.0396,-4.14154 -121.6004,5.5331 -29.86422,1.40006 -11.88123,1.38626 -3.12,0.48473 -1.30704,-15.21912 z"
     id="path12"
     inkscape:connector-curvature="0"
     sodipodi:nodetypes="cccccccccccccccccccccccccccccccccccccccccccccccccccccccccccccccccccccccccccccccccccccccccccccccccccccccccccccccccccccccccccccccccccccccccccccccccccccccccccccccccccccccccccccccccccccccccccccccccccccccccccccccccccccccccccccccccccccccccccccccccccccccccccccccccccccccccccccccccccccccccccccccccccccccccccccccccccccccccccccccccccccccccccccccccc" />
</svg>
