  0
SECTION
  2
HEADER
  9
$ACADVER
  1
AC1014
  9
$HANDSEED
  5
FFFF
  9
$MEASUREMENT
 70
     1
  0
ENDSEC
  0
SECTION
  2
TABLES
  0
TABLE
  2
VPORT
  5
8
330
0
100
AcDbSymbolTable
 70
     4
  0
VPORT
  5
2E
330
8
100
AcDbSymbolTableRecord
100
AcDbViewportTableRecord
  2
*ACTIVE
 70
     0
 10
0.0
 20
0.0
 11
1.0
 21
1.0
 12
210.0
 22
148.5
 13
0.0
 23
0.0
 14
10.0
 24
10.0
 15
10.0
 25
10.0
 16
0.0
 26
0.0
 36
1.0
 17
0.0
 27
0.0
 37
0.0
 40
341.0
 41
1.24
 42
50.0
 43
0.0
 44
0.0
 50
0.0
 51
0.0
 71
     0
 72
   100
 73
     1
 74
     3
 75
     0
 76
     0
 77
     0
 78
     0
  0
ENDTAB
  0
TABLE
  2
LTYPE
  5
5
330
0
100
AcDbSymbolTable
 70
     1
  0
LTYPE
  5
14
330
5
100
AcDbSymbolTableRecord
100
AcDbLinetypeTableRecord
  2
BYBLOCK
 70
     0
  3

 72
    65
 73
     0
 40
0.0
  0
LTYPE
  5
15
330
5
100
AcDbSymbolTableRecord
100
AcDbLinetypeTableRecord
  2
BYLAYER
 70
     0
  3

 72
    65
 73
     0
 40
0.0
  0
LTYPE
  5
16
330
5
100
AcDbSymbolTableRecord
100
AcDbLinetypeTableRecord
  2
CONTINUOUS
 70
     0
  3
Solid line
 72
    65
 73
     0
 40
0.0
  0
ENDTAB
  0
TABLE
  2
LAYER
  5
2
100
AcDbSymbolTable
 70
1
  0
LAYER
  5
50
100
AcDbSymbolTableRecord
100
AcDbLayerTableRecord
  2
0
 70
0
  6
CONTINUOUS
  0
ENDTAB
  0
TABLE
  2
STYLE
  5
3
330
0
100
AcDbSymbolTable
 70
     1
  0
STYLE
  5
11
330
3
100
AcDbSymbolTableRecord
100
AcDbTextStyleTableRecord
  2
STANDARD
 70
     0
 40
0.0
 41
1.0
 50
0.0
 71
     0
 42
2.5
  3
txt
  4

  0
ENDTAB
  0
TABLE
  2
VIEW
  5
6
330
0
100
AcDbSymbolTable
 70
     0
  0
ENDTAB
  0
TABLE
  2
UCS
  5
7
330
0
100
AcDbSymbolTable
 70
     0
  0
ENDTAB
  0
TABLE
  2
APPID
  5
9
330
0
100
AcDbSymbolTable
 70
     2
  0
APPID
  5
12
330
9
100
AcDbSymbolTableRecord
100
AcDbRegAppTableRecord
  2
ACAD
 70
     0
  0
ENDTAB
  0
TABLE
  2
DIMSTYLE
  5
A
330
0
100
AcDbSymbolTable
 70
     1
  0
DIMSTYLE
105
27
330
A
100
AcDbSymbolTableRecord
100
AcDbDimStyleTableRecord
  2
ISO-25
 70
     0
  3

  4

  5

  6

  7

 40
1.0
 41
2.5
 42
0.625
 43
3.75
 44
1.25
 45
0.0
 46
0.0
 47
0.0
 48
0.0
140
2.5
141
2.5
142
0.0
143
0.03937007874016
144
1.0
145
0.0
146
1.0
147
0.625
 71
     0
 72
     0
 73
     0
 74
     0
 75
     0
 76
     0
 77
     1
 78
     8
170
     0
171
     3
172
     1
173
     0
174
     0
175
     0
176
     0
177
     0
178
     0
270
     2
271
     2
272
     2
273
     2
274
     3
340
11
275
     0
280
     0
281
     0
282
     0
283
     0
284
     8
285
     0
286
     0
287
     3
288
     0
  0
ENDTAB
  0
TABLE
  2
BLOCK_RECORD
  5
1
330
0
100
AcDbSymbolTable
 70
     1
  0
BLOCK_RECORD
  5
1F
330
1
100
AcDbSymbolTableRecord
100
AcDbBlockTableRecord
  2
*MODEL_SPACE
  0
BLOCK_RECORD
  5
1B
330
1
100
AcDbSymbolTableRecord
100
AcDbBlockTableRecord
  2
*PAPER_SPACE
  0
ENDTAB
  0
ENDSEC
  0
SECTION
  2
BLOCKS
  0
BLOCK
  5
20
330
1F
100
AcDbEntity
  8
0
100
AcDbBlockBegin
  2
*MODEL_SPACE
 70
     0
 10
0.0
 20
0.0
 30
0.0
  3
*MODEL_SPACE
  1

  0
ENDBLK
  5
21
330
1F
100
AcDbEntity
  8
0
100
AcDbBlockEnd
  0
BLOCK
  5
1C
330
1B
100
AcDbEntity
 67
     1
  8
0
100
AcDbBlockBegin
  2
*PAPER_SPACE
  1

  0
ENDBLK
  5
1D
330
1B
100
AcDbEntity
 67
     1
  8
0
100
AcDbBlockEnd
  0
ENDSEC
  0
SECTION
  2
ENTITIES
  0
LWPOLYLINE
  5
100
100
AcDbEntity
  8
0
 62
7
100
AcDbPolyline
 90
152
 70
1
 10
277.640467
 20
6.449377
 30
0.0
 10
270.886282
 20
6.883635
 30
0.0
 10
263.887305
 20
7.505513
 30
0.0
 10
256.894912
 20
8.289750
 30
0.0
 10
250.160467
 20
9.211080
 30
0.0
 10
210.168105
 20
18.350362
 30
0.0
 10
172.159305
 20
33.298440
 30
0.0
 10
136.740630
 20
53.762767
 30
0.0
 10
104.518650
 20
79.450822
 30
0.0
 10
103.622370
 20
80.263792
 30
0.0
 10
102.862515
 20
80.919405
 30
0.0
 10
102.319327
 20
81.350730
 30
0.0
 10
102.073057
 20
81.490822
 30
0.0
 10
101.762760
 20
81.191317
 30
0.0
 10
101.045280
 20
80.425770
 30
0.0
 10
100.027470
 20
79.310010
 30
0.0
 10
98.816190
 20
77.959897
 30
0.0
 10
92.100510
 20
70.836780
 30
0.0
 10
84.671220
 20
63.699083
 30
0.0
 10
76.880482
 20
56.869980
 30
0.0
 10
69.080465
 20
50.672640
 30
0.0
 10
65.178268
 20
47.845920
 30
0.0
 10
60.703895
 20
44.759010
 30
0.0
 10
56.428895
 20
41.933295
 30
0.0
 10
53.124815
 20
39.890183
 30
0.0
 10
49.334750
 20
37.717748
 30
0.0
 10
46.406788
 20
36.080948
 30
0.0
 10
43.866755
 20
34.719810
 30
0.0
 10
41.240465
 20
33.374355
 30
0.0
 10
35.695940
 20
30.688868
 30
0.0
 10
30.227840
 20
28.260870
 30
0.0
 10
24.760025
 20
26.058113
 30
0.0
 10
19.216325
 20
24.048360
 30
0.0
 10
15.946543
 20
22.990088
 30
0.0
 10
11.996353
 20
21.792615
 30
0.0
 10
8.407475
 20
20.763593
 30
0.0
 10
6.221630
 20
20.210663
 30
0.0
 10
5.986918
 20
20.166863
 30
0.0
 10
5.752213
 20
20.123063
 30
0.0
 10
5.517500
 20
20.079263
 30
0.0
 10
5.282788
 20
20.035462
 30
0.0
 10
5.321338
 20
20.839890
 30
0.0
 10
5.359888
 20
21.644325
 30
0.0
 10
5.398438
 20
22.448760
 30
0.0
 10
5.436988
 20
23.253195
 30
0.0
 10
6.096583
 20
31.387335
 30
0.0
 10
7.286728
 20
40.290623
 30
0.0
 10
8.909428
 20
49.337760
 30
0.0
 10
10.866695
 20
57.903458
 30
0.0
 10
13.774123
 20
68.107973
 30
0.0
 10
17.127470
 20
77.788995
 30
0.0
 10
21.048305
 20
87.266745
 30
0.0
 10
25.658203
 20
96.861458
 30
0.0
 10
26.722925
 20
98.959313
 30
0.0
 10
27.594845
 20
100.710473
 30
0.0
 10
28.183978
 20
101.931878
 30
0.0
 10
28.400345
 20
102.440475
 30
0.0
 10
28.248613
 20
102.808613
 30
0.0
 10
27.835490
 20
103.647645
 30
0.0
 10
27.224060
 20
104.832885
 30
0.0
 10
26.477420
 20
106.239675
 30
0.0
 10
19.529023
 20
120.931058
 30
0.0
 10
13.763803
 20
136.770893
 30
0.0
 10
9.379738
 20
153.131063
 30
0.0
 10
6.574813
 20
169.383458
 30
0.0
 10
5.905925
 20
175.414943
 30
0.0
 10
5.493688
 20
180.291443
 30
0.0
 10
5.368400
 20
183.553950
 30
0.0
 10
5.560363
 20
184.743458
 30
0.0
 10
7.118338
 20
184.382318
 30
0.0
 10
10.305635
 20
183.480810
 30
0.0
 10
14.190290
 20
182.311793
 30
0.0
 10
17.840323
 20
181.148138
 30
0.0
 10
35.335543
 20
174.240188
 30
0.0
 10
52.245350
 20
165.351293
 30
0.0
 10
68.452648
 20
154.551068
 30
0.0
 10
83.840325
 20
141.909143
 30
0.0
 10
87.423045
 20
138.531803
 30
0.0
 10
91.587068
 20
134.407793
 30
0.0
 10
95.742135
 20
130.133040
 30
0.0
 10
99.297983
 20
126.303458
 30
0.0
 10
100.319190
 20
125.178840
 30
0.0
 10
101.188620
 20
124.245750
 30
0.0
 10
101.814218
 20
123.601335
 30
0.0
 10
102.103898
 20
123.342743
 30
0.0
 10
102.411930
 20
123.517590
 30
0.0
 10
103.087515
 20
124.053330
 30
0.0
 10
104.030925
 20
124.866870
 30
0.0
 10
105.142463
 20
125.875133
 30
0.0
 10
117.434310
 20
136.571925
 30
0.0
 10
130.544130
 20
146.652848
 30
0.0
 10
144.257587
 20
155.962958
 30
0.0
 10
158.360325
 20
164.347298
 30
0.0
 10
184.879455
 20
177.220913
 30
0.0
 10
212.474595
 20
187.130580
 30
0.0
 10
240.942600
 20
194.015423
 30
0.0
 10
270.080325
 20
197.814600
 30
0.0
 10
297.438900
 20
198.567765
 30
0.0
 10
324.483810
 20
196.651448
 30
0.0
 10
351.146977
 20
192.073875
 30
0.0
 10
377.360325
 20
184.843275
 30
0.0
 10
379.480080
 20
184.137548
 30
0.0
 10
381.259845
 20
183.531135
 30
0.0
 10
382.512847
 20
183.088643
 30
0.0
 10
383.052307
 20
182.874653
 30
0.0
 10
382.989157
 20
182.631878
 30
0.0
 10
382.506217
 20
182.092800
 30
0.0
 10
381.602197
 20
181.256153
 30
0.0
 10
380.275837
 20
180.120675
 30
0.0
 10
376.905915
 20
177.093398
 30
0.0
 10
373.122240
 20
173.365635
 30
0.0
 10
369.466628
 20
169.491090
 30
0.0
 10
366.480900
 20
166.023458
 30
0.0
 10
364.181528
 20
163.020660
 30
0.0
 10
361.820587
 20
159.697148
 30
0.0
 10
359.600250
 20
156.347400
 30
0.0
 10
357.722678
 20
153.265898
 30
0.0
 10
349.078148
 20
133.845503
 30
0.0
 10
344.671163
 20
113.345325
 30
0.0
 10
344.569102
 20
92.384828
 30
0.0
 10
348.839317
 20
71.583458
 30
0.0
 10
351.569520
 20
64.073168
 30
0.0
 10
354.961088
 20
56.646075
 30
0.0
 10
358.896840
 20
49.534703
 30
0.0
 10
363.259575
 20
42.971595
 30
0.0
 10
367.215802
 20
37.913910
 30
0.0
 10
371.593223
 20
32.943503
 30
0.0
 10
376.122030
 20
28.350113
 30
0.0
 10
380.532420
 20
24.423458
 30
0.0
 10
381.603488
 20
23.525370
 30
0.0
 10
382.465800
 20
22.765538
 30
0.0
 10
383.031420
 20
22.224098
 30
0.0
 10
383.212403
 20
21.981195
 30
0.0
 10
381.510825
 20
21.324990
 30
0.0
 10
377.545957
 20
19.990980
 30
0.0
 10
372.731280
 20
18.443153
 30
0.0
 10
368.480317
 20
17.145480
 30
0.0
 10
357.469808
 20
14.193300
 30
0.0
 10
346.198365
 20
11.658623
 30
0.0
 10
334.847895
 20
9.578543
 30
0.0
 10
323.600317
 20
7.990178
 30
0.0
 10
319.595115
 20
7.576868
 30
0.0
 10
314.419905
 20
7.130535
 30
0.0
 10
308.974897
 20
6.723510
 30
0.0
 10
304.160317
 20
6.428138
 30
0.0
 10
298.532430
 20
6.274500
 30
0.0
 10
290.989860
 20
6.227850
 30
0.0
 10
283.402522
 20
6.286650
 30
0.0
 10
277.640317
 20
6.449468
 30
0.0
 10
277.640317
 20
6.449460
 30
0.0
 10
277.640317
 20
6.449460
 30
0.0
 10
277.640332
 20
6.449453
 30
0.0
  0
LWPOLYLINE
  5
101
100
AcDbEntity
  8
0
 62
7
100
AcDbPolyline
 90
66
 70
1
 10
383.840467
 20
22.393777
 30
0.0
 10
383.735460
 20
22.777755
 30
0.0
 10
383.449552
 20
23.726715
 30
0.0
 10
383.026402
 20
25.097835
 30
0.0
 10
382.509667
 20
26.748240
 30
0.0
 10
377.280315
 20
46.174605
 30
0.0
 10
373.559467
 20
66.270352
 30
0.0
 10
371.427232
 20
86.483820
 30
0.0
 10
370.963702
 20
106.263338
 30
0.0
 10
371.964202
 20
125.021280
 30
0.0
 10
374.229127
 20
143.105887
 30
0.0
 10
377.838787
 20
161.009220
 30
0.0
 10
382.873507
 20
179.223337
 30
0.0
 10
383.270685
 20
180.486720
 30
0.0
 10
383.605942
 20
181.531500
 30
0.0
 10
383.843970
 20
182.249145
 30
0.0
 10
383.949472
 20
182.531115
 30
0.0
 10
384.201015
 20
182.473440
 30
0.0
 10
384.836730
 20
182.266327
 30
0.0
 10
385.760557
 20
181.942477
 30
0.0
 10
386.876467
 20
181.534560
 30
0.0
 10
407.063092
 20
173.091352
 30
0.0
 10
426.544072
 20
163.069207
 30
0.0
 10
445.142250
 20
151.568273
 30
0.0
 10
462.680467
 20
138.688658
 30
0.0
 10
465.984172
 20
135.990105
 30
0.0
 10
469.795095
 20
132.791460
 30
0.0
 10
473.348707
 20
129.741420
 30
0.0
 10
475.880467
 20
127.488697
 30
0.0
 10
476.357377
 20
127.047720
 30
0.0
 10
476.946217
 20
126.505222
 30
0.0
 10
477.572190
 20
125.930032
 30
0.0
 10
478.160467
 20
125.390977
 30
0.0
 10
482.871210
 20
120.891630
 30
0.0
 10
488.355315
 20
115.359322
 30
0.0
 10
493.893742
 20
109.534882
 30
0.0
 10
498.767445
 20
104.159160
 30
0.0
 10
499.149187
 20
103.723927
 30
0.0
 10
499.530930
 20
103.288695
 30
0.0
 10
499.912680
 20
102.853462
 30
0.0
 10
500.294422
 20
102.418230
 30
0.0
 10
500.003730
 20
102.073860
 30
0.0
 10
499.713030
 20
101.729497
 30
0.0
 10
499.422337
 20
101.385135
 30
0.0
 10
499.131645
 20
101.040772
 30
0.0
 10
498.602490
 20
100.420702
 30
0.0
 10
498.021247
 20
99.750690
 30
0.0
 10
497.458387
 20
99.111345
 30
0.0
 10
496.984365
 20
98.583315
 30
0.0
 10
496.405395
 20
97.946190
 30
0.0
 10
495.556792
 20
97.009815
 30
0.0
 10
494.552655
 20
95.900190
 30
0.0
 10
493.507072
 20
94.743315
 30
0.0
 10
486.856035
 20
87.788572
 30
0.0
 10
478.986465
 20
80.211487
 30
0.0
 10
470.677545
 20
72.736965
 30
0.0
 10
462.708450
 20
66.089910
 30
0.0
 10
445.206877
 20
53.258632
 30
0.0
 10
426.810135
 20
41.856240
 30
0.0
 10
407.614605
 20
31.937400
 30
0.0
 10
387.716662
 20
23.556772
 30
0.0
 10
385.677720
 20
22.800630
 30
0.0
 10
384.504532
 20
22.400497
 30
0.0
 10
383.968357
 20
22.287750
 30
0.0
 10
383.840467
 20
22.393747
 30
0.0
 10
383.840467
 20
22.393747
 30
0.0
  0
LWPOLYLINE
  5
102
100
AcDbEntity
  8
0
 62
7
100
AcDbPolyline
 90
24
 70
1
 10
430.953570
 20
89.322720
 30
0.0
 10
433.207702
 20
90.300517
 30
0.0
 10
435.379372
 20
91.820542
 30
0.0
 10
437.286338
 20
93.729578
 30
0.0
 10
438.746370
 20
95.874412
 30
0.0
 10
439.413555
 20
97.382887
 30
0.0
 10
439.965563
 20
99.106537
 30
0.0
 10
440.340450
 20
100.815960
 30
0.0
 10
440.476290
 20
102.281737
 30
0.0
 10
440.186235
 20
104.953913
 30
0.0
 10
439.374075
 20
107.564205
 30
0.0
 10
438.099637
 20
109.968728
 30
0.0
 10
436.422833
 20
112.023600
 30
0.0
 10
431.174948
 20
115.318185
 30
0.0
 10
425.349105
 20
116.031465
 30
0.0
 10
419.790608
 20
114.243263
 30
0.0
 10
415.344743
 20
110.033378
 30
0.0
 10
414.288473
 20
108.216840
 30
0.0
 10
413.564085
 20
106.394175
 30
0.0
 10
413.148097
 20
104.488598
 30
0.0
 10
413.017027
 20
102.423338
 30
0.0
 10
414.539100
 20
96.041220
 30
0.0
 10
418.559055
 20
91.348297
 30
0.0
 10
424.292137
 20
88.917727
 30
0.0
  0
ENDSEC
  0
SECTION
  2
OBJECTS
  0
DICTIONARY
  5
C
330
0
100
AcDbDictionary
  3
ACAD_GROUP
350
D
  3
ACAD_MLINESTYLE
350
17
  0
DICTIONARY
  5
D
330
C
100
AcDbDictionary
  0
DICTIONARY
  5
1A
330
C
100
AcDbDictionary
  0
DICTIONARY
  5
17
330
C
100
AcDbDictionary
  3
STANDARD
350
18
  0
DICTIONARY
  5
19
330
C
100
AcDbDictionary
  0
ENDSEC
  0
EOF
