  0
SECTION
  2
HEADER
  9
$ACADVER
  1
AC1014
  9
$HANDSEED
  5
FFFF
  9
$MEASUREMENT
 70
     1
  0
ENDSEC
  0
SECTION
  2
TABLES
  0
TABLE
  2
VPORT
  5
8
330
0
100
AcDbSymbolTable
 70
     4
  0
VPORT
  5
2E
330
8
100
AcDbSymbolTableRecord
100
AcDbViewportTableRecord
  2
*ACTIVE
 70
     0
 10
0.0
 20
0.0
 11
1.0
 21
1.0
 12
210.0
 22
148.5
 13
0.0
 23
0.0
 14
10.0
 24
10.0
 15
10.0
 25
10.0
 16
0.0
 26
0.0
 36
1.0
 17
0.0
 27
0.0
 37
0.0
 40
341.0
 41
1.24
 42
50.0
 43
0.0
 44
0.0
 50
0.0
 51
0.0
 71
     0
 72
   100
 73
     1
 74
     3
 75
     0
 76
     0
 77
     0
 78
     0
  0
ENDTAB
  0
TABLE
  2
LTYPE
  5
5
330
0
100
AcDbSymbolTable
 70
     1
  0
LTYPE
  5
14
330
5
100
AcDbSymbolTableRecord
100
AcDbLinetypeTableRecord
  2
BYBLOCK
 70
     0
  3

 72
    65
 73
     0
 40
0.0
  0
LTYPE
  5
15
330
5
100
AcDbSymbolTableRecord
100
AcDbLinetypeTableRecord
  2
BYLAYER
 70
     0
  3

 72
    65
 73
     0
 40
0.0
  0
LTYPE
  5
16
330
5
100
AcDbSymbolTableRecord
100
AcDbLinetypeTableRecord
  2
CONTINUOUS
 70
     0
  3
Solid line
 72
    65
 73
     0
 40
0.0
  0
ENDTAB
  0
TABLE
  2
LAYER
  5
2
100
AcDbSymbolTable
 70
1
  0
LAYER
  5
50
100
AcDbSymbolTableRecord
100
AcDbLayerTableRecord
  2
0
 70
0
  6
CONTINUOUS
  0
ENDTAB
  0
TABLE
  2
STYLE
  5
3
330
0
100
AcDbSymbolTable
 70
     1
  0
STYLE
  5
11
330
3
100
AcDbSymbolTableRecord
100
AcDbTextStyleTableRecord
  2
STANDARD
 70
     0
 40
0.0
 41
1.0
 50
0.0
 71
     0
 42
2.5
  3
txt
  4

  0
ENDTAB
  0
TABLE
  2
VIEW
  5
6
330
0
100
AcDbSymbolTable
 70
     0
  0
ENDTAB
  0
TABLE
  2
UCS
  5
7
330
0
100
AcDbSymbolTable
 70
     0
  0
ENDTAB
  0
TABLE
  2
APPID
  5
9
330
0
100
AcDbSymbolTable
 70
     2
  0
APPID
  5
12
330
9
100
AcDbSymbolTableRecord
100
AcDbRegAppTableRecord
  2
ACAD
 70
     0
  0
ENDTAB
  0
TABLE
  2
DIMSTYLE
  5
A
330
0
100
AcDbSymbolTable
 70
     1
  0
DIMSTYLE
105
27
330
A
100
AcDbSymbolTableRecord
100
AcDbDimStyleTableRecord
  2
ISO-25
 70
     0
  3

  4

  5

  6

  7

 40
1.0
 41
2.5
 42
0.625
 43
3.75
 44
1.25
 45
0.0
 46
0.0
 47
0.0
 48
0.0
140
2.5
141
2.5
142
0.0
143
0.03937007874016
144
1.0
145
0.0
146
1.0
147
0.625
 71
     0
 72
     0
 73
     0
 74
     0
 75
     0
 76
     0
 77
     1
 78
     8
170
     0
171
     3
172
     1
173
     0
174
     0
175
     0
176
     0
177
     0
178
     0
270
     2
271
     2
272
     2
273
     2
274
     3
340
11
275
     0
280
     0
281
     0
282
     0
283
     0
284
     8
285
     0
286
     0
287
     3
288
     0
  0
ENDTAB
  0
TABLE
  2
BLOCK_RECORD
  5
1
330
0
100
AcDbSymbolTable
 70
     1
  0
BLOCK_RECORD
  5
1F
330
1
100
AcDbSymbolTableRecord
100
AcDbBlockTableRecord
  2
*MODEL_SPACE
  0
BLOCK_RECORD
  5
1B
330
1
100
AcDbSymbolTableRecord
100
AcDbBlockTableRecord
  2
*PAPER_SPACE
  0
ENDTAB
  0
ENDSEC
  0
SECTION
  2
BLOCKS
  0
BLOCK
  5
20
330
1F
100
AcDbEntity
  8
0
100
AcDbBlockBegin
  2
*MODEL_SPACE
 70
     0
 10
0.0
 20
0.0
 30
0.0
  3
*MODEL_SPACE
  1

  0
ENDBLK
  5
21
330
1F
100
AcDbEntity
  8
0
100
AcDbBlockEnd
  0
BLOCK
  5
1C
330
1B
100
AcDbEntity
 67
     1
  8
0
100
AcDbBlockBegin
  2
*PAPER_SPACE
  1

  0
ENDBLK
  5
1D
330
1B
100
AcDbEntity
 67
     1
  8
0
100
AcDbBlockEnd
  0
ENDSEC
  0
SECTION
  2
ENTITIES
  0
LWPOLYLINE
  5
100
100
AcDbEntity
  8
0
 62
7
100
AcDbPolyline
 90
72
 70
1
 10
60.526481
 20
-0.591097
 30
0.0
 10
54.821983
 20
-0.531472
 30
0.0
 10
41.165069
 20
-0.429082
 30
0.0
 10
31.505070
 20
-0.362632
 30
0.0
 10
21.845070
 20
-0.296182
 30
0.0
 10
17.225070
 20
4.336163
 30
0.0
 10
12.605070
 20
8.968500
 30
0.0
 10
5.235208
 20
16.484273
 30
0.0
 10
3.205037
 20
19.006485
 30
0.0
 10
2.939097
 20
21.279870
 30
0.0
 10
2.524434
 20
25.659773
 30
0.0
 10
1.852466
 20
33.142838
 30
0.0
 10
1.309959
 20
38.815020
 30
0.0
 10
1.161749
 20
40.989997
 30
0.0
 10
1.232312
 20
41.964510
 30
0.0
 10
4.010075
 20
42.972727
 30
0.0
 10
10.389761
 20
45.123960
 30
0.0
 10
20.755192
 20
48.785152
 30
0.0
 10
30.627852
 20
51.849375
 30
0.0
 10
32.515178
 20
52.464180
 30
0.0
 10
34.402502
 20
53.078992
 30
0.0
 10
35.000117
 20
54.354187
 30
0.0
 10
35.597731
 20
55.629375
 30
0.0
 10
36.742787
 20
58.082707
 30
0.0
 10
37.817390
 20
60.399757
 30
0.0
 10
38.329606
 20
61.509757
 30
0.0
 10
38.841821
 20
62.619757
 30
0.0
 10
39.932636
 20
62.615257
 30
0.0
 10
41.023451
 20
62.610757
 30
0.0
 10
43.938976
 20
62.536282
 30
0.0
 10
47.885080
 20
62.370142
 30
0.0
 10
52.283080
 20
62.167972
 30
0.0
 10
56.285080
 20
62.007315
 30
0.0
 10
60.711950
 20
61.759372
 30
0.0
 10
62.045080
 20
61.407150
 30
0.0
 10
62.676298
 20
61.083855
 30
0.0
 10
63.965078
 20
60.818985
 30
0.0
 10
68.609981
 20
59.466952
 30
0.0
 10
74.177528
 20
57.992160
 30
0.0
 10
76.093853
 20
57.184687
 30
0.0
 10
78.245078
 20
55.566795
 30
0.0
 10
79.309913
 20
54.623790
 30
0.0
 10
79.847933
 20
54.227182
 30
0.0
 10
80.056110
 20
54.132615
 30
0.0
 10
80.327933
 20
53.916277
 30
0.0
 10
82.087470
 20
52.394737
 30
0.0
 10
83.885078
 20
50.859675
 30
0.0
 10
85.259303
 20
49.738222
 30
0.0
 10
86.670915
 20
48.584632
 30
0.0
 10
87.449295
 20
47.918130
 30
0.0
 10
88.947398
 20
46.659675
 30
0.0
 10
92.130128
 20
43.654222
 30
0.0
 10
92.977373
 20
39.699675
 30
0.0
 10
94.393500
 20
30.646920
 30
0.0
 10
95.796308
 20
22.098345
 30
0.0
 10
96.357330
 20
18.390517
 30
0.0
 10
96.521325
 20
16.667595
 30
0.0
 10
96.509400
 20
16.377105
 30
0.0
 10
96.647520
 20
16.113232
 30
0.0
 10
96.094860
 20
15.273712
 30
0.0
 10
93.463320
 20
13.266210
 30
0.0
 10
89.139360
 20
10.056547
 30
0.0
 10
80.045078
 20
3.230835
 30
0.0
 10
78.245078
 20
1.883115
 30
0.0
 10
76.445078
 20
0.544477
 30
0.0
 10
75.545078
 20
-0.121605
 30
0.0
 10
74.645078
 20
-0.787688
 30
0.0
 10
71.125786
 20
-0.745838
 30
0.0
 10
67.606493
 20
-0.703988
 30
0.0
 10
62.623322
 20
-0.636338
 30
0.0
 10
60.526492
 20
-0.591188
 30
0.0
 10
60.526487
 20
-0.591165
 30
0.0
  0
ENDSEC
  0
SECTION
  2
OBJECTS
  0
DICTIONARY
  5
C
330
0
100
AcDbDictionary
  3
ACAD_GROUP
350
D
  3
ACAD_MLINESTYLE
350
17
  0
DICTIONARY
  5
D
330
C
100
AcDbDictionary
  0
DICTIONARY
  5
1A
330
C
100
AcDbDictionary
  0
DICTIONARY
  5
17
330
C
100
AcDbDictionary
  3
STANDARD
350
18
  0
DICTIONARY
  5
19
330
C
100
AcDbDictionary
  0
ENDSEC
  0
EOF
