  0
SECTION
  2
HEADER
  9
$ACADVER
  1
AC1014
  9
$HANDSEED
  5
FFFF
  9
$MEASUREMENT
 70
     1
  0
ENDSEC
  0
SECTION
  2
TABLES
  0
TABLE
  2
VPORT
  5
8
330
0
100
AcDbSymbolTable
 70
     4
  0
VPORT
  5
2E
330
8
100
AcDbSymbolTableRecord
100
AcDbViewportTableRecord
  2
*ACTIVE
 70
     0
 10
0.0
 20
0.0
 11
1.0
 21
1.0
 12
210.0
 22
148.5
 13
0.0
 23
0.0
 14
10.0
 24
10.0
 15
10.0
 25
10.0
 16
0.0
 26
0.0
 36
1.0
 17
0.0
 27
0.0
 37
0.0
 40
341.0
 41
1.24
 42
50.0
 43
0.0
 44
0.0
 50
0.0
 51
0.0
 71
     0
 72
   100
 73
     1
 74
     3
 75
     0
 76
     0
 77
     0
 78
     0
  0
ENDTAB
  0
TABLE
  2
LTYPE
  5
5
330
0
100
AcDbSymbolTable
 70
     1
  0
LTYPE
  5
14
330
5
100
AcDbSymbolTableRecord
100
AcDbLinetypeTableRecord
  2
BYBLOCK
 70
     0
  3

 72
    65
 73
     0
 40
0.0
  0
LTYPE
  5
15
330
5
100
AcDbSymbolTableRecord
100
AcDbLinetypeTableRecord
  2
BYLAYER
 70
     0
  3

 72
    65
 73
     0
 40
0.0
  0
LTYPE
  5
16
330
5
100
AcDbSymbolTableRecord
100
AcDbLinetypeTableRecord
  2
CONTINUOUS
 70
     0
  3
Solid line
 72
    65
 73
     0
 40
0.0
  0
ENDTAB
  0
TABLE
  2
LAYER
  5
2
100
AcDbSymbolTable
 70
1
  0
LAYER
  5
50
100
AcDbSymbolTableRecord
100
AcDbLayerTableRecord
  2
0
 70
0
  6
CONTINUOUS
  0
ENDTAB
  0
TABLE
  2
STYLE
  5
3
330
0
100
AcDbSymbolTable
 70
     1
  0
STYLE
  5
11
330
3
100
AcDbSymbolTableRecord
100
AcDbTextStyleTableRecord
  2
STANDARD
 70
     0
 40
0.0
 41
1.0
 50
0.0
 71
     0
 42
2.5
  3
txt
  4

  0
ENDTAB
  0
TABLE
  2
VIEW
  5
6
330
0
100
AcDbSymbolTable
 70
     0
  0
ENDTAB
  0
TABLE
  2
UCS
  5
7
330
0
100
AcDbSymbolTable
 70
     0
  0
ENDTAB
  0
TABLE
  2
APPID
  5
9
330
0
100
AcDbSymbolTable
 70
     2
  0
APPID
  5
12
330
9
100
AcDbSymbolTableRecord
100
AcDbRegAppTableRecord
  2
ACAD
 70
     0
  0
ENDTAB
  0
TABLE
  2
DIMSTYLE
  5
A
330
0
100
AcDbSymbolTable
 70
     1
  0
DIMSTYLE
105
27
330
A
100
AcDbSymbolTableRecord
100
AcDbDimStyleTableRecord
  2
ISO-25
 70
     0
  3

  4

  5

  6

  7

 40
1.0
 41
2.5
 42
0.625
 43
3.75
 44
1.25
 45
0.0
 46
0.0
 47
0.0
 48
0.0
140
2.5
141
2.5
142
0.0
143
0.03937007874016
144
1.0
145
0.0
146
1.0
147
0.625
 71
     0
 72
     0
 73
     0
 74
     0
 75
     0
 76
     0
 77
     1
 78
     8
170
     0
171
     3
172
     1
173
     0
174
     0
175
     0
176
     0
177
     0
178
     0
270
     2
271
     2
272
     2
273
     2
274
     3
340
11
275
     0
280
     0
281
     0
282
     0
283
     0
284
     8
285
     0
286
     0
287
     3
288
     0
  0
ENDTAB
  0
TABLE
  2
BLOCK_RECORD
  5
1
330
0
100
AcDbSymbolTable
 70
     1
  0
BLOCK_RECORD
  5
1F
330
1
100
AcDbSymbolTableRecord
100
AcDbBlockTableRecord
  2
*MODEL_SPACE
  0
BLOCK_RECORD
  5
1B
330
1
100
AcDbSymbolTableRecord
100
AcDbBlockTableRecord
  2
*PAPER_SPACE
  0
ENDTAB
  0
ENDSEC
  0
SECTION
  2
BLOCKS
  0
BLOCK
  5
20
330
1F
100
AcDbEntity
  8
0
100
AcDbBlockBegin
  2
*MODEL_SPACE
 70
     0
 10
0.0
 20
0.0
 30
0.0
  3
*MODEL_SPACE
  1

  0
ENDBLK
  5
21
330
1F
100
AcDbEntity
  8
0
100
AcDbBlockEnd
  0
BLOCK
  5
1C
330
1B
100
AcDbEntity
 67
     1
  8
0
100
AcDbBlockBegin
  2
*PAPER_SPACE
  1

  0
ENDBLK
  5
1D
330
1B
100
AcDbEntity
 67
     1
  8
0
100
AcDbBlockEnd
  0
ENDSEC
  0
SECTION
  2
ENTITIES
  0
LWPOLYLINE
  5
100
100
AcDbEntity
  8
0
 62
7
100
AcDbPolyline
 90
36
 70
1
 10
24.440214
 20
0.139920
 30
0.0
 10
22.509935
 20
1.271422
 30
0.0
 10
21.073239
 20
3.067035
 30
0.0
 10
20.175109
 20
5.446305
 30
0.0
 10
19.860529
 20
8.328810
 30
0.0
 10
20.263846
 20
11.429992
 30
0.0
 10
21.421543
 20
13.815412
 30
0.0
 10
23.229493
 20
15.347535
 30
0.0
 10
25.583574
 20
15.888810
 30
0.0
 10
25.884629
 20
15.888810
 30
0.0
 10
26.185685
 20
15.888810
 30
0.0
 10
26.486740
 20
15.888810
 30
0.0
 10
26.787796
 20
15.888810
 30
0.0
 10
26.789821
 20
15.363810
 30
0.0
 10
26.791846
 20
14.838810
 30
0.0
 10
26.793871
 20
14.313810
 30
0.0
 10
26.795896
 20
13.788810
 30
0.0
 10
27.081069
 20
11.239890
 30
0.0
 10
27.855554
 20
8.845283
 30
0.0
 10
29.027674
 20
6.813480
 30
0.0
 10
30.505749
 20
5.352983
 30
0.0
 10
30.857387
 20
5.090663
 30
0.0
 10
31.146717
 20
4.837838
 30
0.0
 10
31.343784
 20
4.623285
 30
0.0
 10
31.418634
 20
4.475798
 30
0.0
 10
31.200052
 20
3.890190
 30
0.0
 10
30.628514
 20
2.995995
 30
0.0
 10
29.868637
 20
2.023943
 30
0.0
 10
29.085039
 20
1.204785
 30
0.0
 10
27.979605
 20
0.403980
 30
0.0
 10
26.839830
 20
-0.039780
 30
0.0
 10
25.661440
 20
-0.127470
 30
0.0
 10
24.440161
 20
0.139920
 30
0.0
 10
24.440155
 20
0.139920
 30
0.0
 10
24.440150
 20
0.139920
 30
0.0
 10
24.440144
 20
0.139920
 30
0.0
  0
LWPOLYLINE
  5
101
100
AcDbEntity
  8
0
 62
7
100
AcDbPolyline
 90
24
 70
1
 10
32.027799
 20
4.804530
 30
0.0
 10
29.823035
 20
6.601920
 30
0.0
 10
28.171223
 20
9.368445
 30
0.0
 10
27.302167
 20
12.560873
 30
0.0
 10
27.445674
 20
15.635985
 30
0.0
 10
27.635405
 20
16.275998
 30
0.0
 10
27.867411
 20
16.907730
 30
0.0
 10
28.112322
 20
17.458373
 30
0.0
 10
28.340769
 20
17.855108
 30
0.0
 10
29.479403
 20
19.018215
 30
0.0
 10
30.948241
 20
19.864673
 30
0.0
 10
32.607618
 20
20.335658
 30
0.0
 10
34.317871
 20
20.372333
 30
0.0
 10
36.657569
 20
19.615005
 30
0.0
 10
38.387299
 20
18.010590
 30
0.0
 10
39.459796
 20
15.626363
 30
0.0
 10
39.827799
 20
12.529598
 30
0.0
 10
39.621406
 20
10.135920
 30
0.0
 10
39.016679
 20
8.078205
 30
0.0
 10
38.035294
 20
6.407385
 30
0.0
 10
36.698926
 20
5.174430
 30
0.0
 10
35.612708
 20
4.660470
 30
0.0
 10
34.392514
 20
4.421190
 30
0.0
 10
33.157744
 20
4.466040
 30
0.0
  0
LWPOLYLINE
  5
102
100
AcDbEntity
  8
0
 62
7
100
AcDbPolyline
 90
36
 70
1
 10
11.185063
 20
16.272045
 30
0.0
 10
10.309450
 20
16.452660
 30
0.0
 10
9.317134
 20
16.692968
 30
0.0
 10
8.330017
 20
16.961625
 30
0.0
 10
7.469998
 20
17.227298
 30
0.0
 10
5.579241
 20
17.970930
 30
0.0
 10
3.347420
 20
18.980513
 30
0.0
 10
1.486338
 20
19.917510
 30
0.0
 10
0.707799
 20
20.443395
 30
0.0
 10
1.046985
 20
20.637608
 30
0.0
 10
1.982295
 20
20.885963
 30
0.0
 10
3.390357
 20
21.160905
 30
0.0
 10
5.147799
 20
21.434888
 30
0.0
 10
7.181444
 20
21.585765
 30
0.0
 10
9.528515
 20
21.545865
 30
0.0
 10
11.940421
 20
21.328553
 30
0.0
 10
14.168569
 20
20.947298
 30
0.0
 10
15.303007
 20
20.643938
 30
0.0
 10
16.868438
 20
20.158305
 30
0.0
 10
18.658234
 20
19.557315
 30
0.0
 10
20.465767
 20
18.907875
 30
0.0
 10
22.142479
 20
18.294773
 30
0.0
 10
23.576070
 20
17.792685
 30
0.0
 10
24.614318
 20
17.453445
 30
0.0
 10
25.104999
 20
17.328848
 30
0.0
 10
25.249020
 20
17.316473
 30
0.0
 10
25.343389
 20
17.282798
 30
0.0
 10
25.380042
 20
17.232923
 30
0.0
 10
25.350904
 20
17.172023
 30
0.0
 10
23.929847
 20
16.839248
 30
0.0
 10
20.955607
 20
16.417575
 30
0.0
 10
17.648240
 20
16.058618
 30
0.0
 10
15.227802
 20
15.913995
 30
0.0
 10
14.240555
 20
15.947820
 30
0.0
 10
13.149248
 20
16.026623
 30
0.0
 10
12.086535
 20
16.138650
 30
0.0
  0
LWPOLYLINE
  5
103
100
AcDbEntity
  8
0
 62
7
100
AcDbPolyline
 90
24
 70
1
 10
21.707799
 20
20.257545
 30
0.0
 10
18.493099
 20
21.794385
 30
0.0
 10
16.188193
 20
23.447513
 30
0.0
 10
14.717139
 20
25.287173
 30
0.0
 10
14.003991
 20
27.383618
 30
0.0
 10
13.951993
 20
27.766148
 30
0.0
 10
13.926876
 20
28.079408
 30
0.0
 10
13.930026
 20
28.291073
 30
0.0
 10
13.962726
 20
28.368810
 30
0.0
 10
14.816131
 20
27.955568
 30
0.0
 10
16.483271
 20
26.981265
 30
0.0
 10
18.306093
 20
25.844040
 30
0.0
 10
19.626546
 20
24.942030
 30
0.0
 10
20.203732
 20
24.465360
 30
0.0
 10
20.830022
 20
23.892270
 30
0.0
 10
21.429901
 20
23.294858
 30
0.0
 10
21.927856
 20
22.745190
 30
0.0
 10
22.870893
 20
21.560190
 30
0.0
 10
23.686454
 20
20.429723
 30
0.0
 10
24.215594
 20
19.587023
 30
0.0
 10
24.299364
 20
19.265333
 30
0.0
 10
24.035623
 20
19.348733
 30
0.0
 10
23.459098
 20
19.563608
 30
0.0
 10
22.654824
 20
19.877400
 30
0.0
  0
LWPOLYLINE
  5
104
100
AcDbEntity
  8
0
 62
7
100
AcDbPolyline
 90
24
 70
1
 10
27.347799
 20
19.396058
 30
0.0
 10
27.930444
 20
20.447063
 30
0.0
 10
29.364728
 20
22.351485
 30
0.0
 10
31.180178
 20
24.519728
 30
0.0
 10
32.906319
 20
26.362163
 30
0.0
 10
35.361955
 20
28.555665
 30
0.0
 10
37.854702
 20
30.438105
 30
0.0
 10
40.158628
 20
31.854120
 30
0.0
 10
42.047799
 20
32.648348
 30
0.0
 10
42.531814
 20
32.764823
 30
0.0
 10
42.803034
 20
32.776298
 30
0.0
 10
42.921637
 20
32.667750
 30
0.0
 10
42.947797
 20
32.424210
 30
0.0
 10
42.726927
 20
31.551833
 30
0.0
 10
42.152620
 20
30.261218
 30
0.0
 10
41.357334
 20
28.816883
 30
0.0
 10
40.473525
 20
27.483308
 30
0.0
 10
39.198479
 20
26.005058
 30
0.0
 10
37.634443
 20
24.596693
 30
0.0
 10
35.830453
 20
23.297633
 30
0.0
 10
33.835545
 20
22.147290
 30
0.0
 10
31.849866
 20
21.190688
 30
0.0
 10
29.727700
 20
20.252565
 30
0.0
 10
28.037518
 20
19.574010
 30
0.0
  0
ENDSEC
  0
SECTION
  2
OBJECTS
  0
DICTIONARY
  5
C
330
0
100
AcDbDictionary
  3
ACAD_GROUP
350
D
  3
ACAD_MLINESTYLE
350
17
  0
DICTIONARY
  5
D
330
C
100
AcDbDictionary
  0
DICTIONARY
  5
1A
330
C
100
AcDbDictionary
  0
DICTIONARY
  5
17
330
C
100
AcDbDictionary
  3
STANDARD
350
18
  0
DICTIONARY
  5
19
330
C
100
AcDbDictionary
  0
ENDSEC
  0
EOF
