  0
SECTION
  2
HEADER
  9
$ACADVER
  1
AC1014
  9
$HANDSEED
  5
FFFF
  9
$MEASUREMENT
 70
     1
  0
ENDSEC
  0
SECTION
  2
TABLES
  0
TABLE
  2
VPORT
  5
8
330
0
100
AcDbSymbolTable
 70
     4
  0
VPORT
  5
2E
330
8
100
AcDbSymbolTableRecord
100
AcDbViewportTableRecord
  2
*ACTIVE
 70
     0
 10
0.0
 20
0.0
 11
1.0
 21
1.0
 12
210.0
 22
148.5
 13
0.0
 23
0.0
 14
10.0
 24
10.0
 15
10.0
 25
10.0
 16
0.0
 26
0.0
 36
1.0
 17
0.0
 27
0.0
 37
0.0
 40
341.0
 41
1.24
 42
50.0
 43
0.0
 44
0.0
 50
0.0
 51
0.0
 71
     0
 72
   100
 73
     1
 74
     3
 75
     0
 76
     0
 77
     0
 78
     0
  0
ENDTAB
  0
TABLE
  2
LTYPE
  5
5
330
0
100
AcDbSymbolTable
 70
     1
  0
LTYPE
  5
14
330
5
100
AcDbSymbolTableRecord
100
AcDbLinetypeTableRecord
  2
BYBLOCK
 70
     0
  3

 72
    65
 73
     0
 40
0.0
  0
LTYPE
  5
15
330
5
100
AcDbSymbolTableRecord
100
AcDbLinetypeTableRecord
  2
BYLAYER
 70
     0
  3

 72
    65
 73
     0
 40
0.0
  0
LTYPE
  5
16
330
5
100
AcDbSymbolTableRecord
100
AcDbLinetypeTableRecord
  2
CONTINUOUS
 70
     0
  3
Solid line
 72
    65
 73
     0
 40
0.0
  0
ENDTAB
  0
TABLE
  2
LAYER
  5
2
100
AcDbSymbolTable
 70
1
  0
LAYER
  5
50
100
AcDbSymbolTableRecord
100
AcDbLayerTableRecord
  2
0
 70
0
  6
CONTINUOUS
  0
ENDTAB
  0
TABLE
  2
STYLE
  5
3
330
0
100
AcDbSymbolTable
 70
     1
  0
STYLE
  5
11
330
3
100
AcDbSymbolTableRecord
100
AcDbTextStyleTableRecord
  2
STANDARD
 70
     0
 40
0.0
 41
1.0
 50
0.0
 71
     0
 42
2.5
  3
txt
  4

  0
ENDTAB
  0
TABLE
  2
VIEW
  5
6
330
0
100
AcDbSymbolTable
 70
     0
  0
ENDTAB
  0
TABLE
  2
UCS
  5
7
330
0
100
AcDbSymbolTable
 70
     0
  0
ENDTAB
  0
TABLE
  2
APPID
  5
9
330
0
100
AcDbSymbolTable
 70
     2
  0
APPID
  5
12
330
9
100
AcDbSymbolTableRecord
100
AcDbRegAppTableRecord
  2
ACAD
 70
     0
  0
ENDTAB
  0
TABLE
  2
DIMSTYLE
  5
A
330
0
100
AcDbSymbolTable
 70
     1
  0
DIMSTYLE
105
27
330
A
100
AcDbSymbolTableRecord
100
AcDbDimStyleTableRecord
  2
ISO-25
 70
     0
  3

  4

  5

  6

  7

 40
1.0
 41
2.5
 42
0.625
 43
3.75
 44
1.25
 45
0.0
 46
0.0
 47
0.0
 48
0.0
140
2.5
141
2.5
142
0.0
143
0.03937007874016
144
1.0
145
0.0
146
1.0
147
0.625
 71
     0
 72
     0
 73
     0
 74
     0
 75
     0
 76
     0
 77
     1
 78
     8
170
     0
171
     3
172
     1
173
     0
174
     0
175
     0
176
     0
177
     0
178
     0
270
     2
271
     2
272
     2
273
     2
274
     3
340
11
275
     0
280
     0
281
     0
282
     0
283
     0
284
     8
285
     0
286
     0
287
     3
288
     0
  0
ENDTAB
  0
TABLE
  2
BLOCK_RECORD
  5
1
330
0
100
AcDbSymbolTable
 70
     1
  0
BLOCK_RECORD
  5
1F
330
1
100
AcDbSymbolTableRecord
100
AcDbBlockTableRecord
  2
*MODEL_SPACE
  0
BLOCK_RECORD
  5
1B
330
1
100
AcDbSymbolTableRecord
100
AcDbBlockTableRecord
  2
*PAPER_SPACE
  0
ENDTAB
  0
ENDSEC
  0
SECTION
  2
BLOCKS
  0
BLOCK
  5
20
330
1F
100
AcDbEntity
  8
0
100
AcDbBlockBegin
  2
*MODEL_SPACE
 70
     0
 10
0.0
 20
0.0
 30
0.0
  3
*MODEL_SPACE
  1

  0
ENDBLK
  5
21
330
1F
100
AcDbEntity
  8
0
100
AcDbBlockEnd
  0
BLOCK
  5
1C
330
1B
100
AcDbEntity
 67
     1
  8
0
100
AcDbBlockBegin
  2
*PAPER_SPACE
  1

  0
ENDBLK
  5
1D
330
1B
100
AcDbEntity
 67
     1
  8
0
100
AcDbBlockEnd
  0
ENDSEC
  0
SECTION
  2
ENTITIES
  0
LWPOLYLINE
  5
100
100
AcDbEntity
  8
0
 62
7
100
AcDbPolyline
 90
128
 70
1
 10
213.914198
 20
6.425539
 30
0.0
 10
211.334265
 20
19.245439
 30
0.0
 10
210.670620
 20
50.971714
 30
0.0
 10
210.670620
 20
70.108639
 30
0.0
 10
210.670620
 20
89.245489
 30
0.0
 10
205.621403
 20
91.632739
 30
0.0
 10
200.572193
 20
94.019936
 30
0.0
 10
192.971797
 20
97.631936
 30
0.0
 10
188.879280
 20
99.611546
 30
0.0
 10
187.753185
 20
91.126564
 30
0.0
 10
187.284787
 20
69.579064
 30
0.0
 10
186.580830
 20
42.052414
 30
0.0
 10
181.683120
 20
34.323214
 30
0.0
 10
176.958630
 20
31.211239
 30
0.0
 10
173.465895
 20
29.916889
 30
0.0
 10
169.973175
 20
31.211239
 30
0.0
 10
165.248662
 20
34.323214
 30
0.0
 10
162.447825
 20
36.526339
 30
0.0
 10
159.646995
 20
38.729464
 30
0.0
 10
154.775295
 20
59.356189
 30
0.0
 10
154.775295
 20
79.982839
 30
0.0
 10
154.775295
 20
99.391601
 30
0.0
 10
154.211700
 20
124.797574
 30
0.0
 10
156.929347
 20
123.016894
 30
0.0
 10
154.211700
 20
124.797574
 30
0.0
 10
142.139152
 20
138.253991
 30
0.0
 10
133.733692
 20
156.721031
 30
0.0
 10
129.857377
 20
166.328779
 30
0.0
 10
124.207230
 20
174.919541
 30
0.0
 10
113.300325
 20
190.909136
 30
0.0
 10
107.471760
 20
207.535481
 30
0.0
 10
104.347380
 20
215.820416
 30
0.0
 10
97.868475
 20
223.856299
 30
0.0
 10
82.345620
 20
242.861006
 30
0.0
 10
67.951454
 20
269.601641
 30
0.0
 10
61.417537
 20
283.651871
 30
0.0
 10
57.792535
 20
291.281659
 30
0.0
 10
53.304316
 20
295.258024
 30
0.0
 10
44.694989
 20
300.524516
 30
0.0
 10
13.957004
 20
322.034561
 30
0.0
 10
2.332117
 20
341.615201
 30
0.0
 10
8.558308
 20
352.182896
 30
0.0
 10
23.584011
 20
362.238236
 30
0.0
 10
35.429275
 20
365.740241
 30
0.0
 10
52.748793
 20
367.183294
 30
0.0
 10
68.572848
 20
368.446841
 30
0.0
 10
78.260602
 20
370.811906
 30
0.0
 10
119.054572
 20
382.014686
 30
0.0
 10
158.584005
 20
378.989261
 30
0.0
 10
169.213920
 20
376.412846
 30
0.0
 10
179.843842
 20
379.299814
 30
0.0
 10
218.696617
 20
381.190459
 30
0.0
 10
244.775512
 20
366.650981
 30
0.0
 10
244.803337
 20
354.631579
 30
0.0
 10
234.643830
 20
338.776429
 30
0.0
 10
228.228930
 20
330.344794
 30
0.0
 10
226.056900
 20
326.341706
 30
0.0
 10
238.300357
 20
325.398206
 30
0.0
 10
254.253337
 20
328.760651
 30
0.0
 10
264.372232
 20
331.562029
 30
0.0
 10
278.170657
 20
332.118056
 30
0.0
 10
298.629412
 20
331.776926
 30
0.0
 10
322.284832
 20
332.225314
 30
0.0
 10
336.744690
 20
331.440109
 30
0.0
 10
349.922625
 20
327.062501
 30
0.0
 10
362.295772
 20
322.742599
 30
0.0
 10
374.131417
 20
320.164586
 30
0.0
 10
402.460485
 20
309.248261
 30
0.0
 10
422.913405
 20
287.825621
 30
0.0
 10
428.646443
 20
283.616659
 30
0.0
 10
440.064278
 20
279.021446
 30
0.0
 10
453.227798
 20
273.546266
 30
0.0
 10
462.849218
 20
266.866639
 30
0.0
 10
469.192875
 20
259.335746
 30
0.0
 10
469.439813
 20
250.868884
 30
0.0
 10
464.822468
 20
238.674514
 30
0.0
 10
456.423833
 20
234.037024
 30
0.0
 10
450.560325
 20
235.608821
 30
0.0
 10
442.717440
 20
239.351981
 30
0.0
 10
435.999885
 20
243.087589
 30
0.0
 10
432.841883
 20
244.641319
 30
0.0
 10
433.635533
 20
240.738161
 30
0.0
 10
436.418655
 20
231.353921
 30
0.0
 10
439.534965
 20
209.605084
 30
0.0
 10
436.191600
 20
191.799649
 30
0.0
 10
435.725693
 20
185.739551
 30
0.0
 10
437.759303
 20
175.115344
 30
0.0
 10
438.847253
 20
150.305681
 30
0.0
 10
428.609070
 20
126.266351
 30
0.0
 10
424.876050
 20
120.644036
 30
0.0
 10
426.014730
 20
106.496231
 30
0.0
 10
426.014730
 20
87.974989
 30
0.0
 10
426.014730
 20
60.928264
 30
0.0
 10
421.787678
 20
12.858814
 30
0.0
 10
407.247090
 20
0.153139
 30
0.0
 10
401.247818
 20
1.149739
 30
0.0
 10
397.832003
 20
4.265314
 30
0.0
 10
396.235470
 20
19.912864
 30
0.0
 10
395.631225
 20
54.504139
 30
0.0
 10
395.631225
 20
77.567464
 30
0.0
 10
395.631225
 20
100.630721
 30
0.0
 10
391.778903
 20
100.005596
 30
0.0
 10
387.926595
 20
99.380449
 30
0.0
 10
374.775173
 20
92.239099
 30
0.0
 10
371.775383
 20
64.415164
 30
0.0
 10
370.510725
 20
40.814989
 30
0.0
 10
365.579925
 20
33.629314
 30
0.0
 10
359.896958
 20
30.620464
 30
0.0
 10
353.887013
 20
32.362864
 30
0.0
 10
342.348645
 20
37.885264
 30
0.0
 10
343.079813
 20
54.985339
 30
0.0
 10
341.330393
 20
70.321339
 30
0.0
 10
337.698158
 20
82.825939
 30
0.0
 10
337.698158
 20
82.825939
 30
0.0
 10
329.725710
 20
83.648314
 30
0.0
 10
310.704788
 20
85.168339
 30
0.0
 10
289.049453
 20
83.927689
 30
0.0
 10
272.207295
 20
83.587639
 30
0.0
 10
259.714928
 20
86.206789
 30
0.0
 10
250.428285
 20
88.398364
 30
0.0
 10
243.521115
 20
88.545739
 30
0.0
 10
240.914760
 20
87.891589
 30
0.0
 10
243.521115
 20
88.545739
 30
0.0
 10
244.398015
 20
67.225639
 30
0.0
 10
244.398015
 20
45.995839
 30
0.0
 10
242.305193
 20
8.180689
 30
0.0
 10
223.845195
 20
0.153139
 30
0.0
 10
217.864800
 20
1.440964
 30
0.0
  0
LWPOLYLINE
  5
101
100
AcDbEntity
  8
0
 62
7
100
AcDbPolyline
 90
56
 70
1
 10
303.597758
 20
108.655444
 30
0.0
 10
310.555080
 20
110.451064
 30
0.0
 10
318.020287
 20
107.949461
 30
0.0
 10
326.914275
 20
105.346661
 30
0.0
 10
337.818788
 20
104.326361
 30
0.0
 10
349.763738
 20
105.639139
 30
0.0
 10
360.832680
 20
111.447641
 30
0.0
 10
371.087828
 20
116.895731
 30
0.0
 10
380.559428
 20
119.994266
 30
0.0
 10
406.631715
 20
142.554559
 30
0.0
 10
406.839210
 20
174.230831
 30
0.0
 10
405.669773
 20
189.003619
 30
0.0
 10
408.607777
 20
206.194189
 30
0.0
 10
414.014670
 20
219.693146
 30
0.0
 10
411.196673
 20
233.535139
 30
0.0
 10
407.300783
 20
242.633779
 30
0.0
 10
407.386462
 20
251.757161
 30
0.0
 10
405.931395
 20
270.534859
 30
0.0
 10
395.647560
 20
286.644401
 30
0.0
 10
379.035143
 20
297.195086
 30
0.0
 10
361.046700
 20
299.345966
 30
0.0
 10
354.561532
 20
299.432471
 30
0.0
 10
349.105005
 20
302.271626
 30
0.0
 10
342.166192
 20
306.122944
 30
0.0
 10
332.509702
 20
309.693041
 30
0.0
 10
321.088192
 20
311.997214
 30
0.0
 10
310.413645
 20
309.627116
 30
0.0
 10
299.746237
 20
307.257604
 30
0.0
 10
288.365805
 20
309.547174
 30
0.0
 10
270.812633
 20
311.138816
 30
0.0
 10
253.471687
 20
304.074124
 30
0.0
 10
246.446813
 20
300.927739
 30
0.0
 10
239.867048
 20
301.922104
 30
0.0
 10
216.293190
 20
303.291971
 30
0.0
 10
199.177350
 20
295.988134
 30
0.0
 10
196.955340
 20
289.537346
 30
0.0
 10
193.554278
 20
277.168849
 30
0.0
 10
170.499233
 20
227.741531
 30
0.0
 10
138.826193
 20
208.499591
 30
0.0
 10
134.120753
 20
208.108151
 30
0.0
 10
131.385330
 20
207.167066
 30
0.0
 10
133.931243
 20
198.765709
 30
0.0
 10
144.769890
 20
186.980269
 30
0.0
 10
151.747920
 20
179.899129
 30
0.0
 10
153.269040
 20
171.917351
 30
0.0
 10
161.532173
 20
149.383534
 30
0.0
 10
182.245680
 20
134.583454
 30
0.0
 10
189.767048
 20
130.193554
 30
0.0
 10
198.506715
 20
122.756329
 30
0.0
 10
220.384695
 20
109.783294
 30
0.0
 10
244.939433
 20
111.514376
 30
0.0
 10
252.892905
 20
113.028889
 30
0.0
 10
261.947303
 20
109.303316
 30
0.0
 10
271.951590
 20
105.477776
 30
0.0
 10
284.017080
 20
105.040541
 30
0.0
 10
295.030718
 20
106.390249
 30
0.0
  0
LWPOLYLINE
  5
102
100
AcDbEntity
  8
0
 62
7
100
AcDbPolyline
 90
31
 70
1
 10
144.646793
 20
233.216711
 30
0.0
 10
163.802463
 20
259.088046
 30
0.0
 10
177.355381
 20
304.235385
 30
0.0
 10
180.595825
 20
318.382724
 30
0.0
 10
184.151472
 20
324.325446
 30
0.0
 10
209.505790
 20
343.911767
 30
0.0
 10
220.658074
 20
358.669627
 30
0.0
 10
209.822987
 20
361.010903
 30
0.0
 10
195.074226
 20
360.713117
 30
0.0
 10
187.640232
 20
358.221192
 30
0.0
 10
180.104808
 20
354.169346
 30
0.0
 10
176.300977
 20
351.587999
 30
0.0
 10
172.497146
 20
349.006652
 30
0.0
 10
166.361383
 20
351.841076
 30
0.0
 10
160.225622
 20
354.675501
 30
0.0
 10
122.108919
 20
360.999366
 30
0.0
 10
85.287603
 20
348.350153
 30
0.0
 10
76.255401
 20
343.382128
 30
0.0
 10
69.191782
 20
344.309601
 30
0.0
 10
53.000246
 20
346.548186
 30
0.0
 10
36.294400
 20
343.233335
 30
0.0
 10
29.360248
 20
339.690770
 30
0.0
 10
31.358843
 20
335.689710
 30
0.0
 10
47.223457
 20
324.379295
 30
0.0
 10
66.511225
 20
314.938454
 30
0.0
 10
73.302279
 20
311.356375
 30
0.0
 10
76.928684
 20
304.576424
 30
0.0
 10
80.868838
 20
294.349626
 30
0.0
 10
86.734483
 20
280.783063
 30
0.0
 10
115.838759
 20
237.684189
 30
0.0
 10
144.646793
 20
233.216711
 30
0.0
  0
ENDSEC
  0
SECTION
  2
OBJECTS
  0
DICTIONARY
  5
C
330
0
100
AcDbDictionary
  3
ACAD_GROUP
350
D
  3
ACAD_MLINESTYLE
350
17
  0
DICTIONARY
  5
D
330
C
100
AcDbDictionary
  0
DICTIONARY
  5
1A
330
C
100
AcDbDictionary
  0
DICTIONARY
  5
17
330
C
100
AcDbDictionary
  3
STANDARD
350
18
  0
DICTIONARY
  5
19
330
C
100
AcDbDictionary
  0
ENDSEC
  0
EOF
