<?xml version="1.0" encoding="UTF-8" standalone="no"?>
<!-- Created with Inkscape (http://www.inkscape.org/) -->

<svg
   xmlns:dc="http://purl.org/dc/elements/1.1/"
   xmlns:cc="http://creativecommons.org/ns#"
   xmlns:rdf="http://www.w3.org/1999/02/22-rdf-syntax-ns#"
   xmlns:svg="http://www.w3.org/2000/svg"
   xmlns="http://www.w3.org/2000/svg"
   xmlns:sodipodi="http://sodipodi.sourceforge.net/DTD/sodipodi-0.dtd"
   xmlns:inkscape="http://www.inkscape.org/namespaces/inkscape"
   version="1.1"
   id="svg2"
   width="96"
   height="71.040001"
   viewBox="0 0 96 71.040001"
   sodipodi:docname="squid.svg"
   inkscape:version="0.92.3 (2405546, 2018-03-11)">
  <metadata
     id="metadata8">
    <rdf:RDF>
      <cc:Work
         rdf:about="">
        <dc:format>image/svg+xml</dc:format>
        <dc:type
           rdf:resource="http://purl.org/dc/dcmitype/StillImage" />
        <dc:title />
      </cc:Work>
    </rdf:RDF>
  </metadata>
  <defs
     id="defs6" />
  <sodipodi:namedview
     pagecolor="#ffffff"
     bordercolor="#666666"
     borderopacity="1"
     objecttolerance="10"
     gridtolerance="10"
     guidetolerance="10"
     inkscape:pageopacity="0"
     inkscape:pageshadow="2"
     inkscape:window-width="1220"
     inkscape:window-height="602"
     id="namedview4"
     showgrid="false"
     inkscape:zoom="4.4637853"
     inkscape:cx="48"
     inkscape:cy="29.631476"
     inkscape:window-x="42"
     inkscape:window-y="148"
     inkscape:window-maximized="0"
     inkscape:current-layer="svg2" />
  <path
     style="fill:#000000;stroke-width:0.31999999"
     d="m 23.1232,70.696723 -0.639366,-1.116441 -0.455625,-1.346869 -0.224779,-1.387957 0.05318,-1.239705 0.529185,-1.747569 0.976307,-1.830182 1.491708,-2.019292 2.075388,-2.3149 1.21725,-1.285724 0.94875,-1.02808 0.58575,-0.666101 0.12825,-0.199788 -0.336274,0.18768 -0.679043,0.388888 -0.923144,0.533303 -1.068577,0.620926 -2.646691,1.678526 -1.910884,1.625514 -1.515064,1.924832 -1.459228,2.576482 -1.364773,2.53562 -1.116434,1.706902 -1.04798,1.112505 -1.159413,0.752432 -1.0084,0.478442 -0.413189,0.07945 0.159432,-0.343003 0.70946,-0.788921 0.960271,-1.129859 0.706261,-1.156143 0.508087,-1.295134 0.365745,-1.546829 1.404589,-3.830053 2.775077,-3.568745 4.16739,-3.329125 5.581533,-3.111191 1.27801,-0.629796 1.078147,-0.566825 0.76479,-0.441744 0.337938,-0.254553 0.11108,-0.254968 -0.263777,-0.01559 -0.8729,0.277848 -1.716292,0.625334 -1.284894,0.439238 -1.548443,0.47695 -1.617048,0.457136 -1.490713,0.379799 -2.243531,0.585917 -1.788399,0.635556 -1.699235,0.840038 -1.976042,1.199357 -0.941483,0.563315 -1.23023,0.680936 -1.359493,0.71273 -1.329276,0.658698 -1.705387,0.782783 -1.2297948,0.442037 -1.1040157,0.197089 -1.32805,0.04794 L 6.1386299,58.433653 5.3349641,58.336319 4.7873021,58.132517 4.3550325,57.790925 4.1866337,57.622734 4.018235,57.454542 3.8498362,57.286351 3.6814374,57.11816 4.135752,57.07127 4.5900665,57.02438 5.044381,56.97749 5.4986955,56.9306 7.3466528,56.525399 9.6401941,55.614975 12.505857,54.140844 16.07018,52.04452 l 3.063816,-1.792079 2.617155,-1.281229 2.670459,-0.984623 3.223726,-0.902262 1.464881,-0.397068 1.304417,-0.398574 1.001919,-0.353747 0.557391,-0.262591 0.457961,-0.351704 -0.03394,-0.101535 -0.604954,0.155288 -1.255086,0.418767 -1.005457,0.282237 -1.428112,0.317925 -1.660555,0.314658 -1.702787,0.272434 -4.302934,0.346833 -3.222799,-0.407725 -2.341981,-1.220607 -1.660482,-2.091817 -0.391505,-0.811883 -0.261142,-0.777859 -0.145724,-0.801866 -0.04525,-0.883903 0.101744,-1.281374 0.329867,-0.985589 0.594945,-0.759539 0.896978,-0.603223 0.822589,-0.357138 0.498558,-0.09935 0.05981,0.148362 -0.493645,0.38601 -1.36057,1.823516 0.312923,2.24128 1.711719,2.073614 2.83582,1.320518 1.902184,0.04566 3.104643,-0.186333 3.012122,-0.312683 1.624618,-0.333388 0.134699,-0.160113 -0.07884,-0.199721 -0.307252,-0.256917 -0.550536,-0.331704 -1.508745,-1.35783 -0.897768,-1.967976 -0.242817,-2.409356 0.45611,-2.681968 0.306198,-0.829394 0.4168,-0.750341 0.566166,-0.729655 0.754297,-0.767335 1.697289,-1.233859 1.676655,-0.548707 1.579028,0.145968 1.404408,0.850169 0.523077,0.572054 0.176438,0.365236 -0.171119,0.08125 -0.519596,-0.279898 -2.137725,-0.489845 -2.21249,0.934908 -1.724112,1.947345 -0.672591,2.547466 0.492656,2.370195 1.30872,1.571326 1.99493,0.683814 2.551285,-0.29234 1.60007,-0.708903 1.54865,-1.195098 1.528535,-1.710858 1.539731,-2.256184 1.211078,-1.695837 1.312875,-1.313785 1.391216,-0.912422 1.446099,-0.491746 0.55027,-0.160879 0.47896,-0.274593 0.439243,-0.411927 0.431117,-0.572882 1.213834,-1.391442 1.92469,-1.32796 3.036695,-1.492525 4.549847,-1.88514 4.206092,-1.781904 4.473209,-2.086662 4.256375,-2.156204 3.555591,-1.990531 2.251708,-1.558106 1.983803,-1.854086 1.862994,-2.3092679 1.889285,-2.9236513 0.818491,-1.3361151 0.771212,-1.1855123 0.637198,-0.9061002 0.416449,-0.4978788 0.396663,-0.3356492 0.281121,-0.1071041 0.289369,0.1254141 0.421407,0.3619052 0.784079,0.6274938 0.767695,0.425946 0.793312,0.2423806 0.860934,0.076797 0.493146,0.043056 0.455246,0.1232945 0.393826,0.1947241 0.308882,0.2573446 0.252863,0.2264755 0.274773,0.1594851 0.263533,0.077877 0.219141,-0.018349 0.626125,-0.081348 0.752807,0.1791716 0.862372,0.4332013 0.954816,0.6807411 0.59387,0.4405125 0.690634,0.4526906 0.701657,0.4116404 0.626939,0.3173615 0.878034,0.4281601 0.388005,0.350245 -0.03547,0.417223 -0.392389,0.6290939 -0.799668,0.7605117 -1.244453,0.5589417 -1.78909,0.38856 -2.433579,0.249365 -1.773041,0.152711 -1.320895,0.204337 -1.06739,0.297724 -1.012524,0.432866 -2.153603,1.483446 -2.47124,2.397281 -2.534303,3.034846 -2.342794,3.396141 -3.836582,5.766239 -3.642759,4.636315 -3.395569,3.445117 -3.09501,2.192642 -2.477776,1.162558 -2.894128,1.173163 -2.470647,0.864742 -1.207331,0.237294 -0.216955,-0.004 -0.343174,0.142016 -0.422256,0.263115 -0.4542,0.359264 -0.904538,0.643325 -1.064113,0.51993 -1.103564,0.348414 -1.022889,0.128779 -0.874606,0.190647 -1.028544,0.626123 -1.299254,1.150744 -1.686735,1.764512 -2.308081,2.600816 -1.643144,2.061875 -1.200792,1.827326 -0.981027,1.897173 -0.762637,1.945054 -0.440835,1.831249 -0.108078,1.647994 0.235637,1.395287 0.609822,1.200492 0.925266,1.031124 1.12285,0.758757 1.202577,0.383391 0.859477,0.209362 0.06452,0.23659 -0.638447,0.194694 -1.249431,0.08368 -2.042811,-0.440467 -1.833996,-1.19242 -1.388761,-1.729981 -0.707106,-2.053148 0.03753,-1.586339 0.344555,-2.107401 0.538296,-2.089875 0.618752,-1.533761 0.237198,-0.42371 0.194245,-0.37134 0.131247,-0.278925 0.0482,-0.146464 -0.156111,0.04597 -0.425056,0.245021 -0.629081,0.404099 -0.768191,0.523204 -2.085419,1.632141 -2.108249,1.950746 -1.871899,2.011347 -1.376372,1.813946 -1.375957,2.534734 -0.909643,2.486235 -0.380426,2.208816 0.211691,1.702474 0.168629,0.66135 -0.153598,0.187127 -0.423933,-0.278854 z m 27.90169,-28.843149 0.500357,-0.706173 0.20764,-0.752925 -0.09435,-0.682151 -0.405627,-0.493852 -1.393253,-0.207534 -1.287009,0.717258 -0.702882,1.185172 0.359128,1.196205 0.589966,0.30992 0.7736,0.05086 0.795817,-0.193532 z"
     id="path12"
     inkscape:connector-curvature="0"
     sodipodi:nodetypes="cccccccccccccccccccccccccccccccccccccccccccccccccccccccccccccccccccccccccccccccccccccccccccccccccccccccccccccccccccccccccccccccccccccccccccccccccccccccccccccccccccccccccccccccccccccccccccccccccccccccccccccccccccccccccccccccccccccccccccccccccccccccccccccccccccccccccccccccccccccccccccccccccc" />
</svg>
