  0
SECTION
  2
HEADER
  9
$ACADVER
  1
AC1014
  9
$HANDSEED
  5
FFFF
  9
$MEASUREMENT
 70
     1
  0
ENDSEC
  0
SECTION
  2
TABLES
  0
TABLE
  2
VPORT
  5
8
330
0
100
AcDbSymbolTable
 70
     4
  0
VPORT
  5
2E
330
8
100
AcDbSymbolTableRecord
100
AcDbViewportTableRecord
  2
*ACTIVE
 70
     0
 10
0.0
 20
0.0
 11
1.0
 21
1.0
 12
210.0
 22
148.5
 13
0.0
 23
0.0
 14
10.0
 24
10.0
 15
10.0
 25
10.0
 16
0.0
 26
0.0
 36
1.0
 17
0.0
 27
0.0
 37
0.0
 40
341.0
 41
1.24
 42
50.0
 43
0.0
 44
0.0
 50
0.0
 51
0.0
 71
     0
 72
   100
 73
     1
 74
     3
 75
     0
 76
     0
 77
     0
 78
     0
  0
ENDTAB
  0
TABLE
  2
LTYPE
  5
5
330
0
100
AcDbSymbolTable
 70
     1
  0
LTYPE
  5
14
330
5
100
AcDbSymbolTableRecord
100
AcDbLinetypeTableRecord
  2
BYBLOCK
 70
     0
  3

 72
    65
 73
     0
 40
0.0
  0
LTYPE
  5
15
330
5
100
AcDbSymbolTableRecord
100
AcDbLinetypeTableRecord
  2
BYLAYER
 70
     0
  3

 72
    65
 73
     0
 40
0.0
  0
LTYPE
  5
16
330
5
100
AcDbSymbolTableRecord
100
AcDbLinetypeTableRecord
  2
CONTINUOUS
 70
     0
  3
Solid line
 72
    65
 73
     0
 40
0.0
  0
ENDTAB
  0
TABLE
  2
LAYER
  5
2
100
AcDbSymbolTable
 70
1
  0
LAYER
  5
50
100
AcDbSymbolTableRecord
100
AcDbLayerTableRecord
  2
0
 70
0
  6
CONTINUOUS
  0
ENDTAB
  0
TABLE
  2
STYLE
  5
3
330
0
100
AcDbSymbolTable
 70
     1
  0
STYLE
  5
11
330
3
100
AcDbSymbolTableRecord
100
AcDbTextStyleTableRecord
  2
STANDARD
 70
     0
 40
0.0
 41
1.0
 50
0.0
 71
     0
 42
2.5
  3
txt
  4

  0
ENDTAB
  0
TABLE
  2
VIEW
  5
6
330
0
100
AcDbSymbolTable
 70
     0
  0
ENDTAB
  0
TABLE
  2
UCS
  5
7
330
0
100
AcDbSymbolTable
 70
     0
  0
ENDTAB
  0
TABLE
  2
APPID
  5
9
330
0
100
AcDbSymbolTable
 70
     2
  0
APPID
  5
12
330
9
100
AcDbSymbolTableRecord
100
AcDbRegAppTableRecord
  2
ACAD
 70
     0
  0
ENDTAB
  0
TABLE
  2
DIMSTYLE
  5
A
330
0
100
AcDbSymbolTable
 70
     1
  0
DIMSTYLE
105
27
330
A
100
AcDbSymbolTableRecord
100
AcDbDimStyleTableRecord
  2
ISO-25
 70
     0
  3

  4

  5

  6

  7

 40
1.0
 41
2.5
 42
0.625
 43
3.75
 44
1.25
 45
0.0
 46
0.0
 47
0.0
 48
0.0
140
2.5
141
2.5
142
0.0
143
0.03937007874016
144
1.0
145
0.0
146
1.0
147
0.625
 71
     0
 72
     0
 73
     0
 74
     0
 75
     0
 76
     0
 77
     1
 78
     8
170
     0
171
     3
172
     1
173
     0
174
     0
175
     0
176
     0
177
     0
178
     0
270
     2
271
     2
272
     2
273
     2
274
     3
340
11
275
     0
280
     0
281
     0
282
     0
283
     0
284
     8
285
     0
286
     0
287
     3
288
     0
  0
ENDTAB
  0
TABLE
  2
BLOCK_RECORD
  5
1
330
0
100
AcDbSymbolTable
 70
     1
  0
BLOCK_RECORD
  5
1F
330
1
100
AcDbSymbolTableRecord
100
AcDbBlockTableRecord
  2
*MODEL_SPACE
  0
BLOCK_RECORD
  5
1B
330
1
100
AcDbSymbolTableRecord
100
AcDbBlockTableRecord
  2
*PAPER_SPACE
  0
ENDTAB
  0
ENDSEC
  0
SECTION
  2
BLOCKS
  0
BLOCK
  5
20
330
1F
100
AcDbEntity
  8
0
100
AcDbBlockBegin
  2
*MODEL_SPACE
 70
     0
 10
0.0
 20
0.0
 30
0.0
  3
*MODEL_SPACE
  1

  0
ENDBLK
  5
21
330
1F
100
AcDbEntity
  8
0
100
AcDbBlockEnd
  0
BLOCK
  5
1C
330
1B
100
AcDbEntity
 67
     1
  8
0
100
AcDbBlockBegin
  2
*PAPER_SPACE
  1

  0
ENDBLK
  5
1D
330
1B
100
AcDbEntity
 67
     1
  8
0
100
AcDbBlockEnd
  0
ENDSEC
  0
SECTION
  2
ENTITIES
  0
LWPOLYLINE
  5
100
100
AcDbEntity
  8
0
 62
7
100
AcDbPolyline
 90
276
 70
1
 10
17.342400
 20
0.257458
 30
0.0
 10
16.862876
 20
1.094789
 30
0.0
 10
16.521157
 20
2.104941
 30
0.0
 10
16.352573
 20
3.145909
 30
0.0
 10
16.392457
 20
4.075687
 30
0.0
 10
16.789346
 20
5.386364
 30
0.0
 10
17.521577
 20
6.759001
 30
0.0
 10
18.640358
 20
8.273470
 30
0.0
 10
20.196898
 20
10.009645
 30
0.0
 10
21.109836
 20
10.973938
 30
0.0
 10
21.821399
 20
11.744998
 30
0.0
 10
22.260711
 20
12.244573
 30
0.0
 10
22.356898
 20
12.394414
 30
0.0
 10
22.104693
 20
12.253654
 30
0.0
 10
21.595411
 20
11.961988
 30
0.0
 10
20.903053
 20
11.562011
 30
0.0
 10
20.101620
 20
11.096317
 30
0.0
 10
18.116602
 20
9.837422
 30
0.0
 10
16.683439
 20
8.618287
 30
0.0
 10
15.547141
 20
7.174663
 30
0.0
 10
14.452720
 20
5.242301
 30
0.0
 10
13.429140
 20
3.340586
 30
0.0
 10
12.591815
 20
2.060410
 30
0.0
 10
11.805830
 20
1.226031
 30
0.0
 10
10.936270
 20
0.661707
 30
0.0
 10
10.179970
 20
0.302875
 30
0.0
 10
9.870078
 20
0.243288
 30
0.0
 10
9.989652
 20
0.500540
 30
0.0
 10
10.521747
 20
1.092231
 30
0.0
 10
11.241950
 20
1.939625
 30
0.0
 10
11.771646
 20
2.806732
 30
0.0
 10
12.152711
 20
3.778083
 30
0.0
 10
12.427020
 20
4.938205
 30
0.0
 10
13.480462
 20
7.810745
 30
0.0
 10
15.561770
 20
10.487303
 30
0.0
 10
18.687312
 20
12.984147
 30
0.0
 10
22.873462
 20
15.317540
 30
0.0
 10
23.831969
 20
15.789887
 30
0.0
 10
24.640580
 20
16.215006
 30
0.0
 10
25.214172
 20
16.546314
 30
0.0
 10
25.467626
 20
16.737229
 30
0.0
 10
25.550936
 20
16.928455
 30
0.0
 10
25.353103
 20
16.940147
 30
0.0
 10
24.698428
 20
16.731761
 30
0.0
 10
23.411209
 20
16.262761
 30
0.0
 10
22.447538
 20
15.933332
 30
0.0
 10
21.286206
 20
15.575620
 30
0.0
 10
20.073420
 20
15.232768
 30
0.0
 10
18.955385
 20
14.947919
 30
0.0
 10
17.272737
 20
14.508481
 30
0.0
 10
15.931438
 20
14.031814
 30
0.0
 10
14.657012
 20
13.401785
 30
0.0
 10
13.174980
 20
12.502268
 30
0.0
 10
12.468868
 20
12.079781
 30
0.0
 10
11.546195
 20
11.569079
 30
0.0
 10
10.526576
 20
11.034532
 30
0.0
 10
9.529619
 20
10.540508
 30
0.0
 10
8.250578
 20
9.953421
 30
0.0
 10
7.328232
 20
9.621893
 30
0.0
 10
6.500220
 20
9.474076
 30
0.0
 10
5.504183
 20
9.438121
 30
0.0
 10
4.603972
 20
9.454761
 30
0.0
 10
4.001223
 20
9.527761
 30
0.0
 10
3.590477
 20
9.680613
 30
0.0
 10
3.266274
 20
9.936807
 30
0.0
 10
3.139975
 20
10.062950
 30
0.0
 10
3.013676
 20
10.189094
 30
0.0
 10
2.887377
 20
10.315237
 30
0.0
 10
2.761078
 20
10.441381
 30
0.0
 10
3.101814
 20
10.476548
 30
0.0
 10
3.442550
 20
10.511716
 30
0.0
 10
3.783286
 20
10.546883
 30
0.0
 10
4.124022
 20
10.582051
 30
0.0
 10
5.509990
 20
10.885951
 30
0.0
 10
7.230146
 20
11.568770
 30
0.0
 10
9.379393
 20
12.674368
 30
0.0
 10
12.052635
 20
14.246611
 30
0.0
 10
14.350497
 20
15.590670
 30
0.0
 10
16.313363
 20
16.551592
 30
0.0
 10
18.316208
 20
17.290059
 30
0.0
 10
20.734002
 20
17.966756
 30
0.0
 10
21.832663
 20
18.264556
 30
0.0
 10
22.810975
 20
18.563487
 30
0.0
 10
23.562415
 20
18.828797
 30
0.0
 10
23.980458
 20
19.025740
 30
0.0
 10
24.323929
 20
19.289518
 30
0.0
 10
24.298474
 20
19.365670
 30
0.0
 10
23.844758
 20
19.249204
 30
0.0
 10
22.903444
 20
18.935128
 30
0.0
 10
22.149351
 20
18.723451
 30
0.0
 10
21.078267
 20
18.485007
 30
0.0
 10
19.832851
 20
18.249013
 30
0.0
 10
18.555761
 20
18.044688
 30
0.0
 10
15.328560
 20
17.784563
 30
0.0
 10
12.911461
 20
18.090357
 30
0.0
 10
11.154975
 20
19.005812
 30
0.0
 10
9.909614
 20
20.574675
 30
0.0
 10
9.615985
 20
21.183587
 30
0.0
 10
9.420128
 20
21.766981
 30
0.0
 10
9.310835
 20
22.368381
 30
0.0
 10
9.276898
 20
23.031308
 30
0.0
 10
9.353206
 20
23.992339
 30
0.0
 10
9.600606
 20
24.731530
 30
0.0
 10
10.046815
 20
25.301185
 30
0.0
 10
10.719548
 20
25.753602
 30
0.0
 10
11.336490
 20
26.021455
 30
0.0
 10
11.710409
 20
26.095968
 30
0.0
 10
11.755266
 20
25.984696
 30
0.0
 10
11.385032
 20
25.695189
 30
0.0
 10
10.364605
 20
24.327552
 30
0.0
 10
10.599297
 20
22.646592
 30
0.0
 10
11.883086
 20
21.091381
 30
0.0
 10
14.009951
 20
20.100993
 30
0.0
 10
15.436589
 20
20.066748
 30
0.0
 10
17.765072
 20
20.206498
 30
0.0
 10
20.024163
 20
20.441010
 30
0.0
 10
21.242627
 20
20.691051
 30
0.0
 10
21.343651
 20
20.811136
 30
0.0
 10
21.284521
 20
20.960926
 30
0.0
 10
21.054082
 20
21.153614
 30
0.0
 10
20.641180
 20
21.402392
 30
0.0
 10
19.509621
 20
22.420765
 30
0.0
 10
18.836295
 20
23.896747
 30
0.0
 10
18.654182
 20
25.703764
 30
0.0
 10
18.996265
 20
27.715240
 30
0.0
 10
19.225913
 20
28.337285
 30
0.0
 10
19.538513
 20
28.900041
 30
0.0
 10
19.963138
 20
29.447282
 30
0.0
 10
20.528861
 20
30.022783
 30
0.0
 10
21.801827
 20
30.948178
 30
0.0
 10
23.059319
 20
31.359708
 30
0.0
 10
24.243590
 20
31.250232
 30
0.0
 10
25.296896
 20
30.612605
 30
0.0
 10
25.689203
 20
30.183565
 30
0.0
 10
25.821532
 20
29.909638
 30
0.0
 10
25.693193
 20
29.848700
 30
0.0
 10
25.303496
 20
30.058624
 30
0.0
 10
23.700202
 20
30.426007
 30
0.0
 10
22.040834
 20
29.724826
 30
0.0
 10
20.747750
 20
28.264318
 30
0.0
 10
20.243307
 20
26.353718
 30
0.0
 10
20.612799
 20
24.576072
 30
0.0
 10
21.594339
 20
23.397577
 30
0.0
 10
23.090537
 20
22.884717
 30
0.0
 10
25.004000
 20
23.103972
 30
0.0
 10
26.204053
 20
23.635649
 30
0.0
 10
27.365540
 20
24.531973
 30
0.0
 10
28.511942
 20
25.815116
 30
0.0
 10
29.666740
 20
27.507254
 30
0.0
 10
30.575048
 20
28.779132
 30
0.0
 10
31.559705
 20
29.764471
 30
0.0
 10
32.603117
 20
30.448787
 30
0.0
 10
33.687691
 20
30.817597
 30
0.0
 10
34.100393
 20
30.938256
 30
0.0
 10
34.459613
 20
31.144201
 30
0.0
 10
34.789046
 20
31.453146
 30
0.0
 10
35.112383
 20
31.882807
 30
0.0
 10
36.022759
 20
32.926389
 30
0.0
 10
37.466276
 20
33.922359
 30
0.0
 10
39.743797
 20
35.041753
 30
0.0
 10
43.156183
 20
36.455608
 30
0.0
 10
46.310752
 20
37.792036
 30
0.0
 10
49.665658
 20
39.357032
 30
0.0
 10
52.857940
 20
40.974185
 30
0.0
 10
55.524633
 20
42.467083
 30
0.0
 10
57.213414
 20
43.635663
 30
0.0
 10
58.701266
 20
45.026227
 30
0.0
 10
60.098512
 20
46.758178
 30
0.0
 10
61.515476
 20
48.950917
 30
0.0
 10
62.129344
 20
49.953003
 30
0.0
 10
62.707753
 20
50.842137
 30
0.0
 10
63.185651
 20
51.521713
 30
0.0
 10
63.497988
 20
51.895122
 30
0.0
 10
63.795485
 20
52.146859
 30
0.0
 10
64.006326
 20
52.227187
 30
0.0
 10
64.223353
 20
52.133126
 30
0.0
 10
64.539408
 20
51.861697
 30
0.0
 10
65.127467
 20
51.391077
 30
0.0
 10
65.703238
 20
51.071617
 30
0.0
 10
66.298223
 20
50.889832
 30
0.0
 10
66.943923
 20
50.832234
 30
0.0
 10
67.313783
 20
50.799942
 30
0.0
 10
67.655217
 20
50.707471
 30
0.0
 10
67.950587
 20
50.561428
 30
0.0
 10
68.182248
 20
50.368420
 30
0.0
 10
68.371895
 20
50.198563
 30
0.0
 10
68.577975
 20
50.078949
 30
0.0
 10
68.775625
 20
50.020542
 30
0.0
 10
68.939980
 20
50.034303
 30
0.0
 10
69.409574
 20
50.095314
 30
0.0
 10
69.974180
 20
49.960936
 30
0.0
 10
70.620959
 20
49.636035
 30
0.0
 10
71.337070
 20
49.125479
 30
0.0
 10
71.782473
 20
48.795094
 30
0.0
 10
72.300448
 20
48.455576
 30
0.0
 10
72.826691
 20
48.146846
 30
0.0
 10
73.296895
 20
47.908825
 30
0.0
 10
73.955421
 20
47.587705
 30
0.0
 10
74.246425
 20
47.325021
 30
0.0
 10
74.219822
 20
47.012104
 30
0.0
 10
73.925530
 20
46.540284
 30
0.0
 10
73.325779
 20
45.969900
 30
0.0
 10
72.392440
 20
45.550693
 30
0.0
 10
71.050622
 20
45.259273
 30
0.0
 10
69.225438
 20
45.072250
 30
0.0
 10
67.895657
 20
44.957716
 30
0.0
 10
66.904986
 20
44.804464
 30
0.0
 10
66.104443
 20
44.581171
 30
0.0
 10
65.345050
 20
44.256521
 30
0.0
 10
63.729848
 20
43.143937
 30
0.0
 10
61.876418
 20
41.345976
 30
0.0
 10
59.975691
 20
39.069841
 30
0.0
 10
58.218595
 20
36.522736
 30
0.0
 10
55.341159
 20
32.198056
 30
0.0
 10
52.609090
 20
28.720820
 30
0.0
 10
50.062413
 20
26.136982
 30
0.0
 10
47.741155
 20
24.492501
 30
0.0
 10
45.882823
 20
23.620582
 30
0.0
 10
43.712227
 20
22.740710
 30
0.0
 10
41.859242
 20
22.092154
 30
0.0
 10
40.953744
 20
21.914183
 30
0.0
 10
40.791028
 20
21.917183
 30
0.0
 10
40.533647
 20
21.810671
 30
0.0
 10
40.216955
 20
21.613335
 30
0.0
 10
39.876305
 20
21.343887
 30
0.0
 10
39.197902
 20
20.861393
 30
0.0
 10
38.399817
 20
20.471446
 30
0.0
 10
37.572144
 20
20.210135
 30
0.0
 10
36.804977
 20
20.113551
 30
0.0
 10
36.149023
 20
19.970566
 30
0.0
 10
35.377615
 20
19.500973
 30
0.0
 10
34.403174
 20
18.637915
 30
0.0
 10
33.138123
 20
17.314531
 30
0.0
 10
31.407062
 20
15.363919
 30
0.0
 10
30.174704
 20
13.817513
 30
0.0
 10
29.274110
 20
12.447019
 30
0.0
 10
28.538340
 20
11.024139
 30
0.0
 10
27.966362
 20
9.565348
 30
0.0
 10
27.635736
 20
8.191912
 30
0.0
 10
27.554678
 20
6.955916
 30
0.0
 10
27.731405
 20
5.909451
 30
0.0
 10
28.188772
 20
5.009082
 30
0.0
 10
28.882721
 20
4.235739
 30
0.0
 10
29.724859
 20
3.666671
 30
0.0
 10
30.626792
 20
3.379128
 30
0.0
 10
31.271399
 20
3.222106
 30
0.0
 10
31.319789
 20
3.044664
 30
0.0
 10
30.840954
 20
2.898643
 30
0.0
 10
29.903881
 20
2.835883
 30
0.0
 10
28.371773
 20
3.166234
 30
0.0
 10
26.996276
 20
4.060549
 30
0.0
 10
25.954705
 20
5.358034
 30
0.0
 10
25.424375
 20
6.897895
 30
0.0
 10
25.452523
 20
8.087650
 30
0.0
 10
25.710939
 20
9.668200
 30
0.0
 10
26.114661
 20
11.235607
 30
0.0
 10
26.578725
 20
12.385927
 30
0.0
 10
26.756624
 20
12.703710
 30
0.0
 10
26.902307
 20
12.982215
 30
0.0
 10
27.000743
 20
13.191409
 30
0.0
 10
27.036893
 20
13.301257
 30
0.0
 10
26.919809
 20
13.266779
 30
0.0
 10
26.601017
 20
13.083013
 30
0.0
 10
26.129207
 20
12.779939
 30
0.0
 10
25.553063
 20
12.387536
 30
0.0
 10
23.988999
 20
11.163430
 30
0.0
 10
22.407812
 20
9.700371
 30
0.0
 10
21.003888
 20
8.191861
 30
0.0
 10
19.971609
 20
6.831401
 30
0.0
 10
18.939641
 20
4.930351
 30
0.0
 10
18.257409
 20
3.065674
 30
0.0
 10
17.972090
 20
1.409062
 30
0.0
 10
18.130858
 20
0.132207
 30
0.0
 10
18.257330
 20
-0.363806
 30
0.0
 10
18.142131
 20
-0.504151
 30
0.0
 10
17.824181
 20
-0.295010
 30
0.0
  0
LWPOLYLINE
  5
101
100
AcDbEntity
  8
0
 62
7
100
AcDbPolyline
 90
12
 70
1
 10
38.268667
 20
21.889820
 30
0.0
 10
38.643935
 20
22.419450
 30
0.0
 10
38.799665
 20
22.984144
 30
0.0
 10
38.728903
 20
23.495757
 30
0.0
 10
38.424682
 20
23.866146
 30
0.0
 10
37.379743
 20
24.021796
 30
0.0
 10
36.414486
 20
23.483853
 30
0.0
 10
35.887324
 20
22.594974
 30
0.0
 10
36.156670
 20
21.697820
 30
0.0
 10
36.599145
 20
21.465380
 30
0.0
 10
37.179345
 20
21.427235
 30
0.0
 10
37.776208
 20
21.572384
 30
0.0
  0
ENDSEC
  0
SECTION
  2
OBJECTS
  0
DICTIONARY
  5
C
330
0
100
AcDbDictionary
  3
ACAD_GROUP
350
D
  3
ACAD_MLINESTYLE
350
17
  0
DICTIONARY
  5
D
330
C
100
AcDbDictionary
  0
DICTIONARY
  5
1A
330
C
100
AcDbDictionary
  0
DICTIONARY
  5
17
330
C
100
AcDbDictionary
  3
STANDARD
350
18
  0
DICTIONARY
  5
19
330
C
100
AcDbDictionary
  0
ENDSEC
  0
EOF
