  0
SECTION
  2
HEADER
  9
$ACADVER
  1
AC1014
  9
$HANDSEED
  5
FFFF
  9
$MEASUREMENT
 70
     1
  0
ENDSEC
  0
SECTION
  2
TABLES
  0
TABLE
  2
VPORT
  5
8
330
0
100
AcDbSymbolTable
 70
     4
  0
VPORT
  5
2E
330
8
100
AcDbSymbolTableRecord
100
AcDbViewportTableRecord
  2
*ACTIVE
 70
     0
 10
0.0
 20
0.0
 11
1.0
 21
1.0
 12
210.0
 22
148.5
 13
0.0
 23
0.0
 14
10.0
 24
10.0
 15
10.0
 25
10.0
 16
0.0
 26
0.0
 36
1.0
 17
0.0
 27
0.0
 37
0.0
 40
341.0
 41
1.24
 42
50.0
 43
0.0
 44
0.0
 50
0.0
 51
0.0
 71
     0
 72
   100
 73
     1
 74
     3
 75
     0
 76
     0
 77
     0
 78
     0
  0
ENDTAB
  0
TABLE
  2
LTYPE
  5
5
330
0
100
AcDbSymbolTable
 70
     1
  0
LTYPE
  5
14
330
5
100
AcDbSymbolTableRecord
100
AcDbLinetypeTableRecord
  2
BYBLOCK
 70
     0
  3

 72
    65
 73
     0
 40
0.0
  0
LTYPE
  5
15
330
5
100
AcDbSymbolTableRecord
100
AcDbLinetypeTableRecord
  2
BYLAYER
 70
     0
  3

 72
    65
 73
     0
 40
0.0
  0
LTYPE
  5
16
330
5
100
AcDbSymbolTableRecord
100
AcDbLinetypeTableRecord
  2
CONTINUOUS
 70
     0
  3
Solid line
 72
    65
 73
     0
 40
0.0
  0
ENDTAB
  0
TABLE
  2
LAYER
  5
2
100
AcDbSymbolTable
 70
1
  0
LAYER
  5
50
100
AcDbSymbolTableRecord
100
AcDbLayerTableRecord
  2
0
 70
0
  6
CONTINUOUS
  0
ENDTAB
  0
TABLE
  2
STYLE
  5
3
330
0
100
AcDbSymbolTable
 70
     1
  0
STYLE
  5
11
330
3
100
AcDbSymbolTableRecord
100
AcDbTextStyleTableRecord
  2
STANDARD
 70
     0
 40
0.0
 41
1.0
 50
0.0
 71
     0
 42
2.5
  3
txt
  4

  0
ENDTAB
  0
TABLE
  2
VIEW
  5
6
330
0
100
AcDbSymbolTable
 70
     0
  0
ENDTAB
  0
TABLE
  2
UCS
  5
7
330
0
100
AcDbSymbolTable
 70
     0
  0
ENDTAB
  0
TABLE
  2
APPID
  5
9
330
0
100
AcDbSymbolTable
 70
     2
  0
APPID
  5
12
330
9
100
AcDbSymbolTableRecord
100
AcDbRegAppTableRecord
  2
ACAD
 70
     0
  0
ENDTAB
  0
TABLE
  2
DIMSTYLE
  5
A
330
0
100
AcDbSymbolTable
 70
     1
  0
DIMSTYLE
105
27
330
A
100
AcDbSymbolTableRecord
100
AcDbDimStyleTableRecord
  2
ISO-25
 70
     0
  3

  4

  5

  6

  7

 40
1.0
 41
2.5
 42
0.625
 43
3.75
 44
1.25
 45
0.0
 46
0.0
 47
0.0
 48
0.0
140
2.5
141
2.5
142
0.0
143
0.03937007874016
144
1.0
145
0.0
146
1.0
147
0.625
 71
     0
 72
     0
 73
     0
 74
     0
 75
     0
 76
     0
 77
     1
 78
     8
170
     0
171
     3
172
     1
173
     0
174
     0
175
     0
176
     0
177
     0
178
     0
270
     2
271
     2
272
     2
273
     2
274
     3
340
11
275
     0
280
     0
281
     0
282
     0
283
     0
284
     8
285
     0
286
     0
287
     3
288
     0
  0
ENDTAB
  0
TABLE
  2
BLOCK_RECORD
  5
1
330
0
100
AcDbSymbolTable
 70
     1
  0
BLOCK_RECORD
  5
1F
330
1
100
AcDbSymbolTableRecord
100
AcDbBlockTableRecord
  2
*MODEL_SPACE
  0
BLOCK_RECORD
  5
1B
330
1
100
AcDbSymbolTableRecord
100
AcDbBlockTableRecord
  2
*PAPER_SPACE
  0
ENDTAB
  0
ENDSEC
  0
SECTION
  2
BLOCKS
  0
BLOCK
  5
20
330
1F
100
AcDbEntity
  8
0
100
AcDbBlockBegin
  2
*MODEL_SPACE
 70
     0
 10
0.0
 20
0.0
 30
0.0
  3
*MODEL_SPACE
  1

  0
ENDBLK
  5
21
330
1F
100
AcDbEntity
  8
0
100
AcDbBlockEnd
  0
BLOCK
  5
1C
330
1B
100
AcDbEntity
 67
     1
  8
0
100
AcDbBlockBegin
  2
*PAPER_SPACE
  1

  0
ENDBLK
  5
1D
330
1B
100
AcDbEntity
 67
     1
  8
0
100
AcDbBlockEnd
  0
ENDSEC
  0
SECTION
  2
ENTITIES
  0
LWPOLYLINE
  5
100
100
AcDbEntity
  8
0
 62
7
100
AcDbPolyline
 90
100
 70
1
 10
403.353000
 20
311.538750
 30
0.0
 10
398.860778
 20
335.320042
 30
0.0
 10
386.526750
 20
355.153777
 30
0.0
 10
368.064840
 20
369.327504
 30
0.0
 10
345.189000
 20
376.128750
 30
0.0
 10
335.740455
 20
393.189223
 30
0.0
 10
321.801750
 20
406.604906
 30
0.0
 10
304.345170
 20
415.382637
 30
0.0
 10
284.343000
 20
418.529250
 30
0.0
 10
275.340503
 20
417.899579
 30
0.0
 10
266.725215
 20
416.073750
 30
0.0
 10
258.572452
 20
413.146547
 30
0.0
 10
250.957500
 20
409.212750
 30
0.0
 10
240.842505
 20
422.809418
 30
0.0
 10
227.584125
 20
433.338844
 30
0.0
 10
211.833870
 20
440.140723
 30
0.0
 10
194.243250
 20
442.554750
 30
0.0
 10
171.291652
 20
438.373348
 30
0.0
 10
151.955250
 20
426.853781
 30
0.0
 10
137.751653
 20
409.533012
 30
0.0
 10
130.198500
 20
387.948000
 30
0.0
 10
128.213265
 20
388.169250
 30
0.0
 10
126.214590
 20
388.341563
 30
0.0
 10
124.199753
 20
388.453406
 30
0.0
 10
122.166000
 20
388.493250
 30
0.0
 10
96.886620
 20
383.389723
 30
0.0
 10
76.241812
 20
369.471469
 30
0.0
 10
62.321977
 20
348.826980
 30
0.0
 10
57.217500
 20
323.544750
 30
0.0
 10
57.239790
 20
322.233000
 30
0.0
 10
57.299063
 20
320.931375
 30
0.0
 10
57.383930
 20
319.636500
 30
0.0
 10
57.483000
 20
318.345000
 30
0.0
 10
45.076711
 20
308.166727
 30
0.0
 10
35.515687
 20
295.264125
 30
0.0
 10
29.364821
 20
280.185772
 30
0.0
 10
27.189000
 20
263.480250
 30
0.0
 10
28.896527
 20
248.637375
 30
0.0
 10
33.759469
 20
235.012313
 30
0.0
 10
41.388363
 20
222.986153
 30
0.0
 10
51.393750
 20
212.940000
 30
0.0
 10
51.338527
 20
212.064120
 30
0.0
 10
51.279930
 20
211.188375
 30
0.0
 10
51.233430
 20
210.309818
 30
0.0
 10
51.214492
 20
209.425500
 30
0.0
 10
56.318020
 20
184.146120
 30
0.0
 10
70.236274
 20
163.501313
 30
0.0
 10
90.880763
 20
149.581478
 30
0.0
 10
116.162993
 20
144.477000
 30
0.0
 10
124.097685
 20
144.963773
 30
0.0
 10
131.741993
 20
146.381063
 30
0.0
 10
139.044862
 20
148.664318
 30
0.0
 10
145.955242
 20
151.749000
 30
0.0
 10
156.009353
 20
144.909458
 30
0.0
 10
166.709708
 20
138.692527
 30
0.0
 10
176.698643
 20
134.557275
 30
0.0
 10
184.618493
 20
133.962750
 30
0.0
 10
185.106368
 20
126.043395
 30
0.0
 10
186.128055
 20
107.679472
 30
0.0
 10
187.020645
 20
86.962185
 30
0.0
 10
187.121242
 20
71.982750
 30
0.0
 10
185.164185
 20
53.685578
 30
0.0
 10
181.760243
 20
35.103285
 30
0.0
 10
177.657112
 20
16.964663
 30
0.0
 10
173.602500
 20
-0.001500
 30
0.0
 10
193.124437
 20
-0.001500
 30
0.0
 10
212.646375
 20
-0.001500
 30
0.0
 10
232.168313
 20
-0.001500
 30
0.0
 10
251.690250
 20
-0.001500
 30
0.0
 10
249.883807
 20
7.743337
 30
0.0
 10
245.871938
 20
25.983097
 30
0.0
 10
241.765852
 20
47.225610
 30
0.0
 10
239.676750
 20
63.978750
 30
0.0
 10
240.247298
 20
77.845642
 30
0.0
 10
241.991715
 20
92.737687
 30
0.0
 10
243.830213
 20
104.626830
 30
0.0
 10
244.683000
 20
109.485000
 30
0.0
 10
251.455125
 20
116.490000
 30
0.0
 10
258.227250
 20
123.495000
 30
0.0
 10
264.999375
 20
130.500000
 30
0.0
 10
271.771500
 20
137.505000
 30
0.0
 10
279.979815
 20
132.750525
 30
0.0
 10
288.890340
 20
129.241222
 30
0.0
 10
298.392765
 20
127.068547
 30
0.0
 10
308.376750
 20
126.324000
 30
0.0
 10
332.157727
 20
130.826310
 30
0.0
 10
351.991500
 20
143.182597
 30
0.0
 10
366.165397
 20
161.666895
 30
0.0
 10
372.966750
 20
184.553250
 30
0.0
 10
390.026790
 20
194.011875
 30
0.0
 10
403.442250
 20
207.972750
 30
0.0
 10
412.219897
 20
225.451500
 30
0.0
 10
415.366500
 20
245.463750
 30
0.0
 10
414.240060
 20
257.523607
 30
0.0
 10
411.002340
 20
268.831687
 30
0.0
 10
405.865770
 20
279.195607
 30
0.0
 10
399.042750
 20
288.423000
 30
0.0
 10
400.872060
 20
293.920192
 30
0.0
 10
402.225277
 20
299.618062
 30
0.0
 10
403.064797
 20
305.497335
 30
0.0
  0
LWPOLYLINE
  5
101
100
AcDbEntity
  8
0
 62
7
100
AcDbPolyline
 90
8
 70
1
 10
160.958250
 20
162.471750
 30
0.0
 10
168.114750
 20
170.531063
 30
0.0
 10
173.867250
 20
179.698500
 30
0.0
 10
180.243000
 20
166.341000
 30
0.0
 10
186.618750
 20
152.983500
 30
0.0
 10
185.238735
 20
152.700705
 30
0.0
 10
180.805402
 20
153.020625
 30
0.0
 10
172.863622
 20
155.694045
 30
0.0
  0
LWPOLYLINE
  5
102
100
AcDbEntity
  8
0
 62
7
100
AcDbPolyline
 90
8
 70
1
 10
208.637250
 20
145.976250
 30
0.0
 10
196.247625
 20
157.152000
 30
0.0
 10
182.825250
 20
181.614000
 30
0.0
 10
196.881465
 20
176.368410
 30
0.0
 10
212.265750
 20
174.506250
 30
0.0
 10
216.318097
 20
174.658500
 30
0.0
 10
220.305750
 20
175.058250
 30
0.0
 10
215.953410
 20
155.971972
 30
0.0
  0
LWPOLYLINE
  5
103
100
AcDbEntity
  8
0
 62
7
100
AcDbPolyline
 90
16
 70
1
 10
236.672250
 20
132.973500
 30
0.0
 10
229.344668
 20
135.748920
 30
0.0
 10
228.433027
 20
147.359813
 30
0.0
 10
231.203377
 20
163.197045
 30
0.0
 10
234.921750
 20
178.651500
 30
0.0
 10
237.274620
 20
179.573265
 30
0.0
 10
239.584875
 20
180.577778
 30
0.0
 10
241.847880
 20
181.669913
 30
0.0
 10
244.059000
 20
182.854500
 30
0.0
 10
246.114442
 20
173.113515
 30
0.0
 10
249.567000
 20
163.975598
 30
0.0
 10
254.299807
 20
155.554440
 30
0.0
 10
260.196000
 20
147.963750
 30
0.0
 10
254.440462
 20
143.127818
 30
0.0
 10
248.465910
 20
138.773813
 30
0.0
 10
242.475457
 20
135.267210
 30
0.0
  0
ENDSEC
  0
SECTION
  2
OBJECTS
  0
DICTIONARY
  5
C
330
0
100
AcDbDictionary
  3
ACAD_GROUP
350
D
  3
ACAD_MLINESTYLE
350
17
  0
DICTIONARY
  5
D
330
C
100
AcDbDictionary
  0
DICTIONARY
  5
1A
330
C
100
AcDbDictionary
  0
DICTIONARY
  5
17
330
C
100
AcDbDictionary
  3
STANDARD
350
18
  0
DICTIONARY
  5
19
330
C
100
AcDbDictionary
  0
ENDSEC
  0
EOF
