  0
SECTION
  2
HEADER
  9
$ACADVER
  1
AC1014
  9
$HANDSEED
  5
FFFF
  9
$MEASUREMENT
 70
     1
  0
ENDSEC
  0
SECTION
  2
TABLES
  0
TABLE
  2
VPORT
  5
8
330
0
100
AcDbSymbolTable
 70
     4
  0
VPORT
  5
2E
330
8
100
AcDbSymbolTableRecord
100
AcDbViewportTableRecord
  2
*ACTIVE
 70
     0
 10
0.0
 20
0.0
 11
1.0
 21
1.0
 12
210.0
 22
148.5
 13
0.0
 23
0.0
 14
10.0
 24
10.0
 15
10.0
 25
10.0
 16
0.0
 26
0.0
 36
1.0
 17
0.0
 27
0.0
 37
0.0
 40
341.0
 41
1.24
 42
50.0
 43
0.0
 44
0.0
 50
0.0
 51
0.0
 71
     0
 72
   100
 73
     1
 74
     3
 75
     0
 76
     0
 77
     0
 78
     0
  0
ENDTAB
  0
TABLE
  2
LTYPE
  5
5
330
0
100
AcDbSymbolTable
 70
     1
  0
LTYPE
  5
14
330
5
100
AcDbSymbolTableRecord
100
AcDbLinetypeTableRecord
  2
BYBLOCK
 70
     0
  3

 72
    65
 73
     0
 40
0.0
  0
LTYPE
  5
15
330
5
100
AcDbSymbolTableRecord
100
AcDbLinetypeTableRecord
  2
BYLAYER
 70
     0
  3

 72
    65
 73
     0
 40
0.0
  0
LTYPE
  5
16
330
5
100
AcDbSymbolTableRecord
100
AcDbLinetypeTableRecord
  2
CONTINUOUS
 70
     0
  3
Solid line
 72
    65
 73
     0
 40
0.0
  0
ENDTAB
  0
TABLE
  2
LAYER
  5
2
100
AcDbSymbolTable
 70
1
  0
LAYER
  5
50
100
AcDbSymbolTableRecord
100
AcDbLayerTableRecord
  2
0
 70
0
  6
CONTINUOUS
  0
ENDTAB
  0
TABLE
  2
STYLE
  5
3
330
0
100
AcDbSymbolTable
 70
     1
  0
STYLE
  5
11
330
3
100
AcDbSymbolTableRecord
100
AcDbTextStyleTableRecord
  2
STANDARD
 70
     0
 40
0.0
 41
1.0
 50
0.0
 71
     0
 42
2.5
  3
txt
  4

  0
ENDTAB
  0
TABLE
  2
VIEW
  5
6
330
0
100
AcDbSymbolTable
 70
     0
  0
ENDTAB
  0
TABLE
  2
UCS
  5
7
330
0
100
AcDbSymbolTable
 70
     0
  0
ENDTAB
  0
TABLE
  2
APPID
  5
9
330
0
100
AcDbSymbolTable
 70
     2
  0
APPID
  5
12
330
9
100
AcDbSymbolTableRecord
100
AcDbRegAppTableRecord
  2
ACAD
 70
     0
  0
ENDTAB
  0
TABLE
  2
DIMSTYLE
  5
A
330
0
100
AcDbSymbolTable
 70
     1
  0
DIMSTYLE
105
27
330
A
100
AcDbSymbolTableRecord
100
AcDbDimStyleTableRecord
  2
ISO-25
 70
     0
  3

  4

  5

  6

  7

 40
1.0
 41
2.5
 42
0.625
 43
3.75
 44
1.25
 45
0.0
 46
0.0
 47
0.0
 48
0.0
140
2.5
141
2.5
142
0.0
143
0.03937007874016
144
1.0
145
0.0
146
1.0
147
0.625
 71
     0
 72
     0
 73
     0
 74
     0
 75
     0
 76
     0
 77
     1
 78
     8
170
     0
171
     3
172
     1
173
     0
174
     0
175
     0
176
     0
177
     0
178
     0
270
     2
271
     2
272
     2
273
     2
274
     3
340
11
275
     0
280
     0
281
     0
282
     0
283
     0
284
     8
285
     0
286
     0
287
     3
288
     0
  0
ENDTAB
  0
TABLE
  2
BLOCK_RECORD
  5
1
330
0
100
AcDbSymbolTable
 70
     1
  0
BLOCK_RECORD
  5
1F
330
1
100
AcDbSymbolTableRecord
100
AcDbBlockTableRecord
  2
*MODEL_SPACE
  0
BLOCK_RECORD
  5
1B
330
1
100
AcDbSymbolTableRecord
100
AcDbBlockTableRecord
  2
*PAPER_SPACE
  0
ENDTAB
  0
ENDSEC
  0
SECTION
  2
BLOCKS
  0
BLOCK
  5
20
330
1F
100
AcDbEntity
  8
0
100
AcDbBlockBegin
  2
*MODEL_SPACE
 70
     0
 10
0.0
 20
0.0
 30
0.0
  3
*MODEL_SPACE
  1

  0
ENDBLK
  5
21
330
1F
100
AcDbEntity
  8
0
100
AcDbBlockEnd
  0
BLOCK
  5
1C
330
1B
100
AcDbEntity
 67
     1
  8
0
100
AcDbBlockBegin
  2
*PAPER_SPACE
  1

  0
ENDBLK
  5
1D
330
1B
100
AcDbEntity
 67
     1
  8
0
100
AcDbBlockEnd
  0
ENDSEC
  0
SECTION
  2
ENTITIES
  0
LWPOLYLINE
  5
100
100
AcDbEntity
  8
0
 62
7
100
AcDbPolyline
 90
204
 70
1
 10
63.375000
 20
0.485782
 30
0.0
 10
47.541603
 20
5.316060
 30
0.0
 10
37.500000
 20
10.636245
 30
0.0
 10
38.253264
 20
13.508647
 30
0.0
 10
40.064303
 20
19.099050
 30
0.0
 10
44.888047
 20
35.255288
 30
0.0
 10
47.660265
 20
49.409475
 30
0.0
 10
48.665793
 20
59.225265
 30
0.0
 10
46.929435
 20
60.750000
 30
0.0
 10
43.903041
 20
62.382668
 30
0.0
 10
41.622844
 20
66.006795
 30
0.0
 10
42.413530
 20
70.231898
 30
0.0
 10
45.670819
 20
73.585170
 30
0.0
 10
47.925343
 20
76.240695
 30
0.0
 10
46.888103
 20
84.429413
 30
0.0
 10
43.629057
 20
96.753255
 30
0.0
 10
39.074204
 20
108.959610
 30
0.0
 10
36.296969
 20
113.607793
 30
0.0
 10
30.702062
 20
115.089592
 30
0.0
 10
26.585189
 20
117.228793
 30
0.0
 10
21.574150
 20
123.064294
 30
0.0
 10
19.223055
 20
125.388641
 30
0.0
 10
16.180805
 20
127.063826
 30
0.0
 10
12.889938
 20
128.957652
 30
0.0
 10
14.812500
 20
129.776576
 30
0.0
 10
16.364348
 20
129.928020
 30
0.0
 10
15.320926
 20
130.714076
 30
0.0
 10
11.071642
 20
134.666897
 30
0.0
 10
8.250000
 20
138.522665
 30
0.0
 10
7.699219
 20
139.545677
 30
0.0
 10
6.375000
 20
141.000000
 30
0.0
 10
5.050781
 20
142.638594
 30
0.0
 10
4.500000
 20
144.104638
 30
0.0
 10
3.839063
 20
145.806016
 30
0.0
 10
2.250000
 20
148.010414
 30
0.0
 10
0.660937
 20
149.956406
 30
0.0
 10
0.000000
 20
151.036511
 30
0.0
 10
0.660937
 20
151.363850
 30
0.0
 10
2.250000
 20
151.500000
 30
0.0
 10
3.839063
 20
151.614534
 30
0.0
 10
4.500000
 20
151.889904
 30
0.0
 10
3.958010
 20
153.023840
 30
0.0
 10
2.654929
 20
155.202589
 30
0.0
 10
1.199924
 20
157.872115
 30
0.0
 10
0.292672
 20
160.186004
 30
0.0
 10
0.104400
 20
161.797128
 30
0.0
 10
1.200243
 20
161.653316
 30
0.0
 10
8.168764
 20
159.589602
 30
0.0
 10
12.638641
 20
159.125225
 30
0.0
 10
12.332300
 20
160.941302
 30
0.0
 10
11.225563
 20
164.315344
 30
0.0
 10
10.169661
 20
167.610097
 30
0.0
 10
9.985543
 20
169.235543
 30
0.0
 10
11.939800
 20
168.656206
 30
0.0
 10
16.025098
 20
166.650098
 30
0.0
 10
20.072492
 20
164.606086
 30
0.0
 10
21.935618
 20
163.935618
 30
0.0
 10
21.717721
 20
165.480221
 30
0.0
 10
20.761801
 20
168.761801
 30
0.0
 10
19.822564
 20
172.060064
 30
0.0
 10
19.644775
 20
173.644776
 30
0.0
 10
23.506896
 20
172.132505
 30
0.0
 10
29.416167
 20
168.631678
 30
0.0
 10
30.885489
 20
167.653811
 30
0.0
 10
31.491882
 20
167.386429
 30
0.0
 10
31.158051
 20
168.636418
 30
0.0
 10
30.366882
 20
171.306698
 30
0.0
 10
29.578085
 20
174.435120
 30
0.0
 10
29.250000
 20
176.786600
 30
0.0
 10
29.250000
 20
177.685702
 30
0.0
 10
29.250000
 20
178.584804
 30
0.0
 10
30.409362
 20
177.907353
 30
0.0
 10
31.568724
 20
177.229902
 30
0.0
 10
34.073203
 20
175.534840
 30
0.0
 10
36.838530
 20
173.362104
 30
0.0
 10
40.831984
 20
171.551603
 30
0.0
 10
41.054582
 20
176.665712
 30
0.0
 10
40.667899
 20
179.731793
 30
0.0
 10
40.747172
 20
181.247172
 30
0.0
 10
42.351248
 20
180.526602
 30
0.0
 10
45.630579
 20
178.216892
 30
0.0
 10
49.067112
 20
175.825661
 30
0.0
 10
49.713974
 20
176.262761
 30
0.0
 10
50.061126
 20
177.701869
 30
0.0
 10
51.743147
 20
176.633258
 30
0.0
 10
53.469473
 20
176.346857
 30
0.0
 10
54.000000
 20
181.544263
 30
0.0
 10
54.186773
 20
185.220815
 30
0.0
 10
54.635822
 20
186.750000
 30
0.0
 10
56.259607
 20
185.441585
 30
0.0
 10
59.270746
 20
182.295822
 30
0.0
 10
62.771257
 20
178.823058
 30
0.0
 10
64.634924
 20
178.572209
 30
0.0
 10
65.716630
 20
180.001933
 30
0.0
 10
66.000000
 20
183.401388
 30
0.0
 10
66.222859
 20
186.318224
 30
0.0
 10
66.772913
 20
187.500000
 30
0.0
 10
69.830789
 20
184.893066
 30
0.0
 10
73.790869
 20
179.853521
 30
0.0
 10
74.498804
 20
178.754824
 30
0.0
 10
75.206738
 20
177.656128
 30
0.0
 10
76.444845
 20
178.856149
 30
0.0
 10
77.682953
 20
180.056171
 30
0.0
 10
78.921060
 20
181.256193
 30
0.0
 10
80.159168
 20
182.456214
 30
0.0
 10
81.335723
 20
181.279661
 30
0.0
 10
82.512278
 20
180.103107
 30
0.0
 10
84.322448
 20
178.460825
 30
0.0
 10
85.370190
 20
177.816721
 30
0.0
 10
86.828273
 20
179.146520
 30
0.0
 10
89.625000
 20
182.250000
 30
0.0
 10
92.548830
 20
185.353480
 30
0.0
 10
94.312500
 20
186.683278
 30
0.0
 10
95.021422
 20
185.764577
 30
0.0
 10
95.250000
 20
182.775000
 30
0.0
 10
95.941665
 20
178.341940
 30
0.0
 10
97.966395
 20
177.513850
 30
0.0
 10
98.750003
 20
177.352342
 30
0.0
 10
99.000000
 20
175.999505
 30
0.0
 10
99.717623
 20
173.745891
 30
0.0
 10
101.698837
 20
174.831592
 30
0.0
 10
106.459357
 20
178.831622
 30
0.0
 10
110.583937
 20
181.500000
 30
0.0
 10
110.561295
 20
177.979960
 30
0.0
 10
109.346288
 20
172.500000
 30
0.0
 10
108.996645
 20
171.562500
 30
0.0
 10
108.647010
 20
170.625000
 30
0.0
 10
109.704007
 20
171.583890
 30
0.0
 10
110.761005
 20
172.542779
 30
0.0
 10
116.189580
 20
176.542764
 30
0.0
 10
119.560800
 20
177.853879
 30
0.0
 10
119.601825
 20
176.585091
 30
0.0
 10
119.162543
 20
174.404744
 30
0.0
 10
118.822042
 20
170.050402
 30
0.0
 10
120.086047
 20
168.000000
 30
0.0
 10
121.241092
 20
168.401908
 30
0.0
 10
122.884260
 20
169.368197
 30
0.0
 10
128.265360
 20
172.445759
 30
0.0
 10
131.753392
 20
173.746643
 30
0.0
 10
131.569710
 20
172.298179
 30
0.0
 10
130.674232
 20
169.269544
 30
0.0
 10
129.973057
 20
167.192589
 30
0.0
 10
129.271883
 20
165.115635
 30
0.0
 10
131.491867
 20
166.236280
 30
0.0
 10
133.711852
 20
167.356924
 30
0.0
 10
136.971068
 20
168.816348
 30
0.0
 10
138.572205
 20
169.177833
 30
0.0
 10
138.572257
 20
167.981512
 30
0.0
 10
137.982075
 20
165.695574
 30
0.0
 10
137.364772
 20
162.721060
 30
0.0
 10
138.336292
 20
160.099554
 30
0.0
 10
139.786582
 20
158.073056
 30
0.0
 10
141.663030
 20
158.574963
 30
0.0
 10
143.819790
 20
159.508684
 30
0.0
 10
146.250037
 20
160.335919
 30
0.0
 10
148.489492
 20
161.024219
 30
0.0
 10
150.187537
 20
161.623903
 30
0.0
 10
151.405642
 20
160.810289
 30
0.0
 10
148.954177
 20
155.808934
 30
0.0
 10
147.681240
 20
153.695023
 30
0.0
 10
146.408310
 20
151.581112
 30
0.0
 10
147.755640
 20
151.467084
 30
0.0
 10
149.102977
 20
151.353056
 30
0.0
 10
150.450307
 20
151.239028
 30
0.0
 10
151.797645
 20
151.125000
 30
0.0
 10
150.525855
 20
149.680546
 30
0.0
 10
149.254057
 20
148.236091
 30
0.0
 10
147.426480
 20
145.772645
 30
0.0
 10
146.604345
 20
143.906654
 30
0.0
 10
145.942170
 20
142.276342
 30
0.0
 10
144.499132
 20
140.379524
 30
0.0
 10
143.087272
 20
138.672674
 30
0.0
 10
142.500037
 20
137.499092
 30
0.0
 10
141.407910
 20
135.916896
 30
0.0
 10
138.782167
 20
133.227632
 30
0.0
 10
135.914362
 20
130.277425
 30
0.0
 10
136.951432
 20
129.750000
 30
0.0
 10
138.216300
 20
128.964501
 30
0.0
 10
133.889565
 20
126.414957
 30
0.0
 10
130.966020
 20
124.691653
 30
0.0
 10
129.750037
 20
123.392399
 30
0.0
 10
128.813707
 20
121.654297
 30
0.0
 10
126.562537
 20
118.875893
 30
0.0
 10
123.339022
 20
115.932851
 30
0.0
 10
119.991367
 20
114.975949
 30
0.0
 10
116.916810
 20
114.172051
 30
0.0
 10
115.217692
 20
111.485115
 30
0.0
 10
108.844912
 20
94.223242
 30
0.0
 10
105.312225
 20
78.663390
 30
0.0
 10
105.235635
 20
74.796945
 30
0.0
 10
107.163705
 20
72.201720
 30
0.0
 10
109.395022
 20
66.207728
 30
0.0
 10
106.296772
 20
61.441785
 30
0.0
 10
104.884545
 20
60.000075
 30
0.0
 10
105.095437
 20
55.263503
 30
0.0
 10
108.627577
 20
36.445875
 30
0.0
 10
114.318847
 20
16.593203
 30
0.0
 10
115.153065
 20
13.975125
 30
0.0
 10
115.500037
 20
12.289073
 30
0.0
 10
109.292107
 20
8.195445
 30
0.0
 10
96.375000
 20
2.977710
 30
0.0
 10
88.253385
 20
0.864525
 30
0.0
 10
77.250000
 20
0.331635
 30
0.0
 10
68.378906
 20
0.297735
 30
0.0
  0
ENDSEC
  0
SECTION
  2
OBJECTS
  0
DICTIONARY
  5
C
330
0
100
AcDbDictionary
  3
ACAD_GROUP
350
D
  3
ACAD_MLINESTYLE
350
17
  0
DICTIONARY
  5
D
330
C
100
AcDbDictionary
  0
DICTIONARY
  5
1A
330
C
100
AcDbDictionary
  0
DICTIONARY
  5
17
330
C
100
AcDbDictionary
  3
STANDARD
350
18
  0
DICTIONARY
  5
19
330
C
100
AcDbDictionary
  0
ENDSEC
  0
EOF
